<svg width="125" height="39" viewBox="0 0 125 39" fill="none" xmlns="http://www.w3.org/2000/svg">
<path fill-rule="evenodd" clip-rule="evenodd" d="M34.9 19.2969C34.9 27.2669 28.3546 33.8112 20.1772 33.8112C11.9998 33.8112 5.45444 27.2669 5.45444 19.2969C5.45444 11.3269 11.9998 4.78256 20.1772 4.78256C28.3546 4.78256 34.9 11.3269 34.9 19.2969ZM39.3856 19.2969C39.3856 29.7903 30.7857 38.2969 20.1772 38.2969C9.56866 38.2969 0.96875 29.7903 0.96875 19.2969C0.96875 8.80346 9.56866 0.296875 20.1772 0.296875C30.7857 0.296875 39.3856 8.80346 39.3856 19.2969ZM20.0769 17.4697C23.0524 17.4697 25.4646 15.0837 25.4646 12.1404C25.4646 9.19715 23.0524 6.81116 20.0769 6.81116C17.1013 6.81116 14.6891 9.19715 14.6891 12.1404C14.6891 15.0837 17.1013 17.4697 20.0769 17.4697ZM31.7024 25.2679C31.7024 28.8657 26.5425 31.7822 20.1773 31.7822C13.8122 31.7822 8.65228 28.8657 8.65228 25.2679C8.65228 21.6702 13.8122 18.7537 20.1773 18.7537C26.5425 18.7537 31.7024 21.6702 31.7024 25.2679ZM65.0986 13.2025C66.0448 13.2025 66.6986 13.7073 67.06 14.7168L69.9942 22.9979C70.1218 23.3554 70.1856 23.6289 70.1856 23.8181C70.1856 24.1757 70.058 24.4649 69.8029 24.6857C69.5477 24.9065 69.2394 25.0169 68.878 25.0169C68.2082 25.0169 67.7404 24.6016 67.4746 23.7708L67.0441 22.4143H62.9299L62.4515 23.8655C62.1963 24.6331 61.7711 25.0169 61.1757 25.0169C60.8036 25.0169 60.5007 24.9065 60.2668 24.6857C60.0329 24.4543 59.9159 24.1546 59.9159 23.7866C59.9159 23.5132 59.9585 23.2608 60.0435 23.0295L63.0734 14.9061C63.4986 13.7704 64.1737 13.2025 65.0986 13.2025ZM65.0189 16.0575L63.6953 20.0956H66.3265L65.0508 16.0575H65.0189ZM49.986 23.1556V15.0796C49.986 13.8387 50.4272 13.2183 51.3096 13.2183C52.192 13.2183 52.6332 13.8387 52.6332 15.0796V17.5876L56.0139 14.1489C56.6199 13.5285 57.1036 13.2183 57.465 13.2183C57.8052 13.2183 58.1082 13.3392 58.374 13.5811C58.6398 13.8229 58.7726 14.1121 58.7726 14.4486C58.7726 14.6905 58.6451 14.9586 58.3899 15.2531L57.7202 15.9156L55.0411 18.5498L58.5972 22.5089C59.0437 23.0032 59.267 23.4343 59.267 23.8024C59.267 24.1178 59.1394 24.4018 58.8843 24.6541C58.6398 24.896 58.358 25.0169 58.0391 25.0169C57.6139 25.0169 57.1355 24.712 56.6039 24.1021L53.0956 20.064L52.6332 20.4426V23.1556C52.6332 24.3965 52.192 25.0169 51.3096 25.0169C50.4272 25.0169 49.986 24.3965 49.986 23.1556ZM74.6283 22.4616V19.4331H75.7765C76.9884 19.4331 77.5944 19.9431 77.5944 20.9631C77.5944 21.9621 76.9884 22.4616 75.7765 22.4616H74.6283ZM76.4144 17.0513H74.6283V15.8052H77.9612C79.2263 15.8052 79.8588 15.4003 79.8588 14.5906C79.8588 13.7704 79.2263 13.3603 77.9612 13.3603H73.8151C73.124 13.3603 72.6456 13.497 72.3799 13.7704C72.1141 14.0438 71.9812 14.5222 71.9812 15.2058V23.0295C71.9812 23.713 72.1141 24.1914 72.3799 24.4649C72.6456 24.7383 73.124 24.875 73.8151 24.875H76.2071C77.4828 24.875 78.5034 24.5437 79.2688 23.8812C80.0661 23.1767 80.4648 22.204 80.4648 20.9631C80.4648 19.7117 80.1033 18.7496 79.3804 18.0766C78.6682 17.393 77.6795 17.0513 76.4144 17.0513ZM90.2253 17.8557L85.4253 24.1336C84.9788 24.7225 84.4685 25.0169 83.8944 25.0169C83.0971 25.0169 82.6984 24.4964 82.6984 23.4553V15.0796C82.6984 13.8387 83.1396 13.2183 84.022 13.2183C84.9044 13.2183 85.3456 13.8387 85.3456 15.0796V20.4741L90.2412 14.0701C90.6771 13.5022 91.1449 13.2183 91.6445 13.2183C92.4631 13.2183 92.8724 13.8072 92.8724 14.9849V23.1556C92.8724 24.3965 92.4312 25.0169 91.5488 25.0169C90.6665 25.0169 90.2253 24.3965 90.2253 23.1556V17.8557ZM98.3832 23.1556V20.2218H103.263V23.1556C103.263 24.3965 103.704 25.0169 104.586 25.0169C105.469 25.0169 105.91 24.3965 105.91 23.1556V15.0796C105.91 13.8387 105.469 13.2183 104.586 13.2183C103.704 13.2183 103.263 13.8387 103.263 15.0796V17.7926H98.3832V15.0796C98.3832 13.8387 97.942 13.2183 97.0596 13.2183C96.1773 13.2183 95.7361 13.8387 95.7361 15.0796V23.1556C95.7361 24.3965 96.1773 25.0169 97.0596 25.0169C97.942 25.0169 98.3832 24.3965 98.3832 23.1556ZM113.59 13.3603C114.844 13.3603 115.471 13.7704 115.471 14.5906C115.471 15.4003 114.844 15.8052 113.59 15.8052H111.421V17.8557H113.287C114.541 17.8557 115.168 18.2606 115.168 19.0703C115.168 19.88 114.541 20.2849 113.287 20.2849H111.421V22.4458H113.669C114.924 22.4458 115.551 22.8507 115.551 23.6604C115.551 24.4701 114.924 24.875 113.669 24.875H110.576C109.906 24.875 109.438 24.7646 109.172 24.5437C108.907 24.3124 108.774 23.8707 108.774 23.2187V15.2058C108.774 14.5222 108.907 14.0438 109.172 13.7704C109.438 13.497 109.917 13.3603 110.608 13.3603H113.59ZM117.665 15.7263C117.899 15.7789 118.494 15.8052 119.451 15.8052V23.1556C119.451 24.3965 119.898 25.0169 120.791 25.0169C121.673 25.0169 122.114 24.3965 122.114 23.1556V15.8052C123.071 15.8052 123.666 15.7789 123.9 15.7263C124.613 15.5791 124.969 15.2005 124.969 14.5906C124.969 13.7704 124.342 13.3603 123.087 13.3603H118.478C117.224 13.3603 116.597 13.7704 116.597 14.5906C116.597 15.2005 116.953 15.5791 117.665 15.7263Z" fill="url(#paint0_linear_1903_30)"/>
<defs>
<linearGradient id="paint0_linear_1903_30" x1="84.6887" y1="45.4667" x2="79.4627" y2="-12.7482" gradientUnits="userSpaceOnUse">
<stop stop-color="#4653D2"/>
<stop offset="1" stop-color="#E93AD2"/>
</linearGradient>
</defs>
</svg>
