<svg width="432" height="312" viewBox="0 0 432 312" fill="none" xmlns="http://www.w3.org/2000/svg">
<path d="M88.5744 216.994C88.6383 216.492 89.1551 216.183 89.6278 216.363L120.906 228.303C121.616 228.574 121.56 229.597 120.824 229.789L86.9012 238.597C86.3663 238.736 85.8602 238.291 85.9301 237.742L88.5744 216.994Z" fill="#F877E9"/>
<path d="M28.8283 246.982C28.0785 246.914 27.8494 245.929 28.4924 245.537L112.81 194.156C113.456 193.762 114.229 194.425 113.937 195.124L90.1758 251.997C90.0444 252.312 89.7241 252.505 89.3845 252.474L28.8283 246.982Z" fill="#F9C8F3"/>
<path d="M36.2451 243.596L105.752 213.273L102.644 222.624L36.2451 243.596Z" fill="#EA3BD3"/>
<path d="M120.27 229.452C121.064 229.76 121.707 228.756 121.096 228.163L105.752 213.273L102.644 222.624L120.27 229.452Z" fill="#EA3BD3"/>
<path fill-rule="evenodd" clip-rule="evenodd" d="M128.255 215.521C130.119 214.189 132.022 212.935 133.959 211.757C134.667 211.326 134.891 210.403 134.461 209.695C134.03 208.988 133.107 208.763 132.4 209.194C130.356 210.437 128.348 211.763 126.382 213.173C126.27 213.253 126.173 213.346 126.09 213.448L128.255 215.521ZM335.504 6.9402C335.034 6.25802 334.1 6.08607 333.418 6.55613C332.427 7.23874 331.445 7.92694 330.472 8.62058C329.797 9.10144 329.64 10.0381 330.121 10.7127C330.602 11.3873 331.539 11.5443 332.213 11.0634C333.173 10.3791 334.142 9.70001 335.12 9.02644C335.802 8.5564 335.974 7.62234 335.504 6.9402ZM326.841 13.1306C326.339 12.4717 325.397 12.3445 324.738 12.8466C322.843 14.2906 320.984 15.7557 319.159 17.2408C318.516 17.7637 318.419 18.7085 318.942 19.3511C319.465 19.9936 320.41 20.0906 321.052 19.5677C322.852 18.1027 324.687 16.6574 326.557 15.2328C327.216 14.7308 327.343 13.7896 326.841 13.1306ZM315.817 21.9795C315.273 21.3542 314.326 21.2878 313.701 21.8312C311.904 23.3925 310.144 24.9736 308.419 26.5733C307.811 27.1366 307.776 28.0857 308.339 28.6931C308.902 29.3005 309.851 29.3362 310.459 28.7729C312.16 27.1951 313.897 25.6356 315.669 24.0956C316.294 23.5522 316.36 22.6047 315.817 21.9795ZM305.388 31.5203C304.806 30.9316 303.856 30.9267 303.267 31.5095C301.576 33.1836 299.922 34.8758 298.303 36.585C297.734 37.1866 297.76 38.1359 298.361 38.7055C298.963 39.275 299.912 39.2491 300.482 38.6475C302.078 36.9617 303.71 35.2927 305.378 33.6416C305.966 33.0588 305.971 32.1091 305.388 31.5203ZM295.601 41.7176C294.982 41.1679 294.033 41.2247 293.484 41.8445C291.905 43.625 290.363 45.4219 288.858 47.2337C288.328 47.8709 288.416 48.8167 289.053 49.346C289.69 49.8754 290.636 49.788 291.165 49.1508C292.65 47.3636 294.171 45.5913 295.728 43.8351C296.278 43.2153 296.221 42.2673 295.601 41.7176ZM286.496 52.5275C285.842 52.0189 284.899 52.1368 284.391 52.7908C282.929 54.6703 281.505 56.564 280.118 58.4706C279.631 59.1405 279.779 60.0786 280.449 60.566C281.118 61.0534 282.057 60.9054 282.544 60.2355C283.912 58.3546 285.317 56.4865 286.759 54.6324C287.267 53.9784 287.15 53.036 286.496 52.5275ZM278.103 63.8999C277.418 63.4341 276.485 63.6119 276.02 64.2969C274.68 66.2673 273.378 68.2494 272.113 70.2418C271.669 70.9413 271.876 71.8682 272.576 72.3121C273.275 72.7561 274.202 72.549 274.646 71.8496C275.894 69.8836 277.179 67.9278 278.5 65.9838C278.966 65.2987 278.788 64.3657 278.103 63.8999ZM270.449 75.7808C269.736 75.3589 268.816 75.5949 268.394 76.3078C267.18 78.3605 266.003 80.4223 264.864 82.4916C264.464 83.2172 264.728 84.1295 265.454 84.5291C266.18 84.9287 267.092 84.6643 267.492 83.9386C268.616 81.8962 269.778 79.8614 270.976 77.8356C271.398 77.1227 271.162 76.2027 270.449 75.7808ZM263.551 88.1139C262.814 87.7367 261.91 88.0288 261.533 88.7664C260.445 90.8931 259.396 93.0259 258.384 95.1631C258.029 95.9118 258.349 96.8062 259.097 97.1607C259.846 97.5153 260.74 97.1958 261.095 96.447C262.094 94.3371 263.13 92.2316 264.204 90.1323C264.581 89.3948 264.289 88.4911 263.551 88.1139ZM257.421 100.842C256.662 100.51 255.778 100.856 255.446 101.616C254.487 103.808 253.566 106.004 252.683 108.2C252.374 108.969 252.747 109.843 253.515 110.152C254.284 110.461 255.158 110.088 255.467 109.32C256.339 107.151 257.248 104.983 258.195 102.818C258.527 102.059 258.18 101.174 257.421 100.842ZM252.06 113.932C251.283 113.646 250.42 114.044 250.134 114.821C249.308 117.065 248.52 119.308 247.77 121.549C247.506 122.334 247.93 123.184 248.715 123.447C249.501 123.711 250.351 123.287 250.614 122.502C251.355 120.289 252.134 118.074 252.949 115.858C253.236 115.08 252.837 114.218 252.06 113.932ZM247.48 127.323C246.687 127.083 245.85 127.531 245.61 128.324C244.919 130.606 244.266 132.883 243.651 135.154C243.434 135.953 243.906 136.777 244.706 136.994C245.506 137.211 246.33 136.738 246.546 135.939C247.154 133.696 247.799 131.447 248.481 129.193C248.721 128.4 248.273 127.563 247.48 127.323ZM243.694 140.955C242.889 140.762 242.079 141.258 241.886 142.064C241.331 144.378 240.814 146.683 240.334 148.976C240.165 149.787 240.685 150.581 241.496 150.751C242.306 150.921 243.101 150.401 243.271 149.59C243.744 147.325 244.255 145.049 244.803 142.764C244.996 141.958 244.5 141.148 243.694 140.955ZM240.716 154.774C239.901 154.629 239.122 155.172 238.976 155.988C238.556 158.345 238.175 160.687 237.832 163.011C237.711 163.83 238.278 164.592 239.097 164.713C239.917 164.834 240.679 164.268 240.8 163.448C241.139 161.154 241.515 158.842 241.93 156.514C242.075 155.699 241.532 154.92 240.716 154.774ZM238.568 168.721C237.745 168.625 237 169.214 236.904 170.037C236.625 172.433 236.386 174.806 236.187 177.154C236.117 177.98 236.73 178.706 237.555 178.776C238.381 178.846 239.107 178.233 239.177 177.408C239.373 175.091 239.608 172.749 239.884 170.385C239.98 169.562 239.391 168.817 238.568 168.721ZM237.277 182.831C236.449 182.787 235.744 183.423 235.7 184.25C235.575 186.643 235.492 189.004 235.448 191.332C235.432 192.16 236.091 192.844 236.92 192.86C237.748 192.875 238.432 192.216 238.447 191.388C238.49 189.094 238.573 186.766 238.696 184.407C238.74 183.58 238.104 182.874 237.277 182.831ZM273.152 221.872C274.981 223.459 276.617 225.077 278.046 226.714C278.59 227.338 279.538 227.402 280.162 226.857C280.786 226.313 280.85 225.365 280.306 224.741C278.776 222.988 277.039 221.273 275.119 219.606C274.493 219.063 273.546 219.13 273.003 219.755C272.46 220.381 272.527 221.328 273.152 221.872ZM269.762 217.244C270.238 216.565 270.074 215.63 269.396 215.154C267.482 213.812 265.446 212.51 263.3 211.254C262.585 210.835 261.666 211.076 261.248 211.791C260.829 212.506 261.07 213.425 261.785 213.843C263.865 215.06 265.831 216.318 267.673 217.61C268.351 218.086 269.286 217.922 269.762 217.244ZM282.594 230.202C281.873 230.611 281.621 231.527 282.031 232.247C283.204 234.312 284.023 236.371 284.471 238.404C284.649 239.213 285.45 239.724 286.259 239.546C287.068 239.367 287.579 238.567 287.401 237.758C286.879 235.391 285.938 233.051 284.639 230.765C284.23 230.045 283.314 229.793 282.594 230.202ZM257.621 209.84C257.989 209.098 257.686 208.198 256.944 207.83C254.839 206.785 252.653 205.782 250.396 204.827C249.633 204.504 248.752 204.861 248.43 205.624C248.107 206.387 248.464 207.267 249.226 207.59C251.43 208.523 253.561 209.5 255.611 210.517C256.353 210.885 257.253 210.582 257.621 209.84ZM244.599 204.128C244.88 203.348 244.476 202.489 243.697 202.208C241.991 201.594 240.253 201.006 238.485 200.446C238.467 199.783 238.452 199.116 238.44 198.446C238.426 197.618 237.743 196.958 236.915 196.972C236.087 196.986 235.427 197.669 235.441 198.497C235.451 199.077 235.463 199.655 235.478 200.231C235.261 200.412 235.093 200.656 235.005 200.946C234.814 201.573 235.054 202.228 235.555 202.594C235.594 203.614 235.642 204.626 235.697 205.629C235.743 206.456 236.45 207.089 237.278 207.043C238.105 206.998 238.738 206.29 238.692 205.463C238.659 204.857 238.628 204.247 238.601 203.634C239.98 204.082 241.341 204.548 242.68 205.031C243.459 205.311 244.319 204.907 244.599 204.128ZM286.363 243.651C285.549 243.5 284.766 244.038 284.615 244.852C284.241 246.871 283.452 248.887 282.192 250.884C281.749 251.584 281.959 252.511 282.659 252.953C283.359 253.395 284.286 253.186 284.728 252.485C286.178 250.189 287.116 247.817 287.565 245.399C287.716 244.585 287.178 243.802 286.363 243.651ZM231.044 199.848C231.246 199.045 230.759 198.229 229.955 198.027C227.656 197.449 225.32 196.919 222.952 196.44C222.14 196.276 221.349 196.802 221.185 197.614C221.021 198.426 221.546 199.217 222.358 199.381C224.68 199.85 226.97 200.37 229.223 200.937C230.027 201.139 230.842 200.651 231.044 199.848ZM237.582 211.081C236.758 211.161 236.154 211.894 236.234 212.719C236.467 215.131 236.749 217.484 237.076 219.771C237.194 220.591 237.954 221.161 238.774 221.043C239.594 220.926 240.163 220.166 240.046 219.346C239.725 217.105 239.449 214.798 239.22 212.43C239.14 211.605 238.407 211.001 237.582 211.081ZM217.136 196.894C217.262 196.075 216.7 195.309 215.881 195.184C213.529 194.822 211.153 194.512 208.758 194.258C207.935 194.171 207.196 194.768 207.109 195.592C207.021 196.416 207.618 197.154 208.442 197.242C210.79 197.491 213.119 197.794 215.425 198.149C216.244 198.275 217.01 197.713 217.136 196.894ZM280.004 256.034C279.442 255.425 278.493 255.386 277.884 255.947C277.069 256.698 276.176 257.443 275.202 258.18C274.235 258.911 273.285 259.533 272.352 260.053C271.628 260.456 271.368 261.369 271.771 262.093C272.174 262.817 273.087 263.077 273.811 262.674C274.877 262.081 275.944 261.38 277.012 260.572C278.058 259.781 279.026 258.974 279.917 258.154C280.526 257.593 280.565 256.644 280.004 256.034ZM239.458 225.091C238.645 225.251 238.116 226.04 238.277 226.853C238.756 229.278 239.291 231.614 239.879 233.852C240.089 234.654 240.91 235.132 241.711 234.922C242.512 234.711 242.991 233.891 242.78 233.09C242.209 230.915 241.688 228.64 241.22 226.272C241.06 225.459 240.271 224.93 239.458 225.091ZM203.009 195.255C203.057 194.428 202.426 193.718 201.599 193.67C199.216 193.532 196.82 193.45 194.417 193.429C193.589 193.421 192.911 194.087 192.904 194.915C192.896 195.743 193.562 196.421 194.39 196.428C196.743 196.45 199.09 196.53 201.425 196.665C202.252 196.713 202.961 196.082 203.009 195.255ZM242.886 238.826C242.104 239.097 241.689 239.951 241.96 240.734C242.784 243.113 243.678 245.349 244.638 247.426C244.986 248.178 245.877 248.506 246.629 248.158C247.381 247.811 247.709 246.92 247.361 246.168C246.447 244.189 245.589 242.047 244.795 239.752C244.524 238.969 243.669 238.555 242.886 238.826ZM267.949 263.413C267.864 262.589 267.128 261.989 266.304 262.074C264.172 262.294 262.119 261.961 260.144 261.113C259.382 260.787 258.5 261.139 258.173 261.9C257.847 262.661 258.199 263.543 258.96 263.87C261.386 264.912 263.952 265.332 266.611 265.059C267.435 264.974 268.034 264.237 267.949 263.413ZM248.543 251.703C247.847 252.153 247.647 253.081 248.097 253.777C249.539 256.011 251.094 257.961 252.756 259.587C253.348 260.166 254.297 260.156 254.877 259.564C255.456 258.972 255.446 258.022 254.854 257.443C253.378 255.999 251.96 254.23 250.617 252.15C250.168 251.454 249.239 251.254 248.543 251.703ZM188.792 194.981C188.758 194.153 188.059 193.51 187.231 193.544C184.842 193.644 182.45 193.805 180.061 194.031C179.236 194.109 178.631 194.841 178.709 195.666C178.787 196.491 179.519 197.096 180.344 197.018C182.679 196.797 185.018 196.639 187.356 196.542C188.184 196.507 188.827 195.808 188.792 194.981ZM174.63 196.165C174.507 195.346 173.742 194.782 172.923 194.906C170.553 195.263 168.191 195.689 165.842 196.185C165.031 196.356 164.513 197.152 164.684 197.962C164.855 198.773 165.651 199.291 166.461 199.12C168.752 198.636 171.057 198.221 173.371 197.872C174.19 197.749 174.754 196.984 174.63 196.165ZM160.691 198.932C160.47 198.134 159.644 197.665 158.845 197.886C156.533 198.524 154.238 199.236 151.966 200.025C151.183 200.297 150.769 201.151 151.041 201.934C151.312 202.716 152.167 203.131 152.95 202.859C155.159 202.092 157.392 201.399 159.644 200.777C160.443 200.557 160.911 199.731 160.691 198.932ZM147.205 203.411C146.881 202.648 146.001 202.293 145.238 202.617C143.03 203.556 140.849 204.573 138.7 205.673C137.963 206.05 137.671 206.954 138.048 207.691C138.426 208.429 139.33 208.721 140.067 208.343C142.151 207.277 144.267 206.29 146.412 205.378C147.174 205.054 147.53 204.173 147.205 203.411Z" fill="#E83BD3" fill-opacity="0.75"/>
</svg>
