<svg width="494" height="303" viewBox="0 0 494 303" fill="none" xmlns="http://www.w3.org/2000/svg">
<path fill-rule="evenodd" clip-rule="evenodd" d="M412.996 85.7273C413.744 86.1044 414.045 87.0165 413.668 87.7645C412.968 89.1533 412.214 90.5228 411.41 91.873C410.981 92.5927 410.044 92.8076 409.334 92.3635V92.3635C408.623 91.9195 408.409 90.9846 408.837 90.2645C409.593 88.9915 410.301 87.7029 410.959 86.3987C411.336 85.6507 412.248 85.3501 412.996 85.7273ZM393.618 110.753C393.054 110.133 393.1 109.174 393.712 108.602C395.923 106.537 398.009 104.416 399.955 102.242C400.513 101.618 401.47 101.547 402.104 102.095V102.095C402.738 102.643 402.808 103.602 402.25 104.226C400.221 106.497 398.049 108.703 395.754 110.847C395.141 111.419 394.181 111.372 393.618 110.753V110.753ZM374.288 125.363C373.836 124.657 374.043 123.72 374.744 123.262C377.284 121.606 379.751 119.903 382.134 118.152C382.809 117.656 383.759 117.791 384.262 118.461V118.461C384.765 119.13 384.631 120.082 383.956 120.578C381.51 122.376 378.98 124.122 376.38 125.818C375.678 126.275 374.74 126.069 374.288 125.363V125.363ZM353.108 137.205C352.739 136.453 353.048 135.545 353.798 135.171C356.503 133.82 359.173 132.426 361.797 130.989C362.531 130.586 363.455 130.848 363.863 131.58V131.58C364.27 132.312 364.008 133.236 363.273 133.639C360.603 135.102 357.887 136.52 355.137 137.893C354.388 138.267 353.478 137.957 353.108 137.205V137.205ZM330.894 146.971C330.587 146.192 330.971 145.312 331.749 145.001C334.542 143.887 337.331 142.73 340.103 141.531C340.871 141.199 341.766 141.548 342.103 142.315V142.315C342.439 143.082 342.09 143.977 341.321 144.31C338.513 145.525 335.689 146.696 332.86 147.824C332.082 148.134 331.201 147.751 330.894 146.971V146.971ZM308.019 155.087C307.764 154.289 308.205 153.436 309.002 153.179C311.843 152.261 314.711 151.298 317.594 150.29C318.385 150.013 319.251 150.426 319.531 151.216V151.216C319.811 152.005 319.398 152.872 318.607 153.149C315.694 154.168 312.795 155.141 309.924 156.069C309.127 156.326 308.274 155.886 308.019 155.087V155.087ZM284.676 161.758C284.47 160.946 284.962 160.121 285.773 159.913C288.619 159.18 291.541 158.394 294.52 157.555C295.326 157.328 296.166 157.794 296.396 158.599V158.599C296.626 159.405 296.16 160.245 295.354 160.472C292.344 161.32 289.394 162.113 286.518 162.853C285.707 163.062 284.882 162.57 284.676 161.758V161.758ZM260.972 166.921C260.825 166.097 261.375 165.31 262.198 165.158C264.968 164.649 267.93 164.06 271.052 163.391C271.871 163.215 272.68 163.733 272.859 164.551V164.551C273.039 165.37 272.521 166.179 271.702 166.354C268.54 167.032 265.539 167.629 262.73 168.145C261.906 168.296 261.119 167.746 260.972 166.921V166.921ZM242.925 167.617C244.116 167.596 245.579 167.507 247.292 167.346C248.126 167.267 248.875 167.867 248.966 168.699V168.699C249.057 169.532 248.456 170.282 247.622 170.361C245.835 170.531 244.276 170.628 242.978 170.65C241.509 170.675 240.061 170.686 238.631 170.683C237.794 170.682 237.121 169.996 237.128 169.158V169.158C237.135 168.321 237.82 167.648 238.658 167.65C240.061 167.653 241.483 167.642 242.925 167.617ZM214.303 167.585C214.416 166.755 215.181 166.175 216.012 166.28C218.669 166.617 221.42 166.895 224.266 167.11C225.101 167.173 225.733 167.896 225.677 168.732V168.732C225.621 169.567 224.898 170.2 224.063 170.137C221.148 169.916 218.328 169.632 215.602 169.286C214.771 169.181 214.19 168.415 214.303 167.585V167.585ZM199.95 114.709C199.115 114.785 198.38 114.169 198.272 113.339C197.885 110.363 197.172 107.536 196.195 104.889C195.905 104.103 196.27 103.217 197.043 102.896V102.896C197.817 102.576 198.707 102.942 199 103.727C200.088 106.649 200.877 109.774 201.296 113.063C201.401 113.894 200.784 114.633 199.95 114.709V114.709ZM195.562 138.409C194.8 138.06 194.467 137.161 194.794 136.39C195.999 133.548 196.893 130.762 197.511 128.046C197.697 127.23 198.49 126.691 199.313 126.85V126.85C200.135 127.008 200.676 127.804 200.492 128.621C199.826 131.573 198.858 134.589 197.554 137.652C197.226 138.422 196.324 138.757 195.562 138.409V138.409ZM190.722 92.5115C190.083 93.0527 189.128 92.9709 188.56 92.3546C186.532 90.1518 184.303 88.2778 181.974 86.7797C181.27 86.3264 181.018 85.4022 181.435 84.6761V84.6761C181.853 83.95 182.782 83.6972 183.488 84.1474C186.122 85.8253 188.622 87.928 190.877 90.3928C191.443 91.0109 191.361 91.9702 190.722 92.5115V92.5115ZM191.931 162.548C192.193 161.753 193.051 161.322 193.85 161.573C196.374 162.366 199.021 163.092 201.796 163.746C202.612 163.938 203.128 164.747 202.946 165.565V165.565C202.764 166.383 201.953 166.899 201.138 166.707C198.264 166.031 195.519 165.278 192.899 164.454C192.1 164.202 191.668 163.344 191.931 162.548V162.548ZM177.241 154.537C179.552 155.824 182.436 155.288 184.145 153.27C185.272 151.937 186.325 150.609 187.305 149.287C187.804 148.614 188.75 148.453 189.433 148.938V148.938C190.116 149.423 190.278 150.37 189.779 151.044C187.879 153.61 185.725 156.189 183.299 158.771C182.995 159.095 182.485 159.107 182.163 158.799L182.116 158.754C181.742 158.397 181.128 158.511 180.907 158.978V158.978C180.727 159.356 180.275 159.518 179.898 159.336C176.942 157.903 174.202 156.363 171.668 154.733C170.963 154.279 170.78 153.336 171.248 152.641V152.641C171.716 151.946 172.658 151.764 173.363 152.217C174.602 153.012 175.894 153.786 177.241 154.537ZM169.884 81.1135C169.85 81.9505 169.143 82.594 168.306 82.6297C166.926 82.6886 165.582 82.9086 164.293 83.2963C163.106 83.6533 161.96 84.1534 160.863 84.7858C160.138 85.2043 159.196 85.042 158.717 84.3547V84.3547C158.238 83.6673 158.404 82.7164 159.124 82.2888C160.479 81.484 161.915 80.8437 163.419 80.3914C165.045 79.9026 166.725 79.6417 168.429 79.5898C169.266 79.5643 169.918 80.2766 169.884 81.1135V81.1135ZM162.98 174.024C162.502 173.336 162.672 172.392 163.355 171.907C165.93 170.079 168.339 168.246 170.59 166.412C171.239 165.883 172.195 165.968 172.732 166.61V166.61C173.27 167.253 173.185 168.21 172.535 168.74C170.215 170.632 167.735 172.519 165.087 174.398C164.404 174.883 163.458 174.712 162.98 174.024V174.024ZM155.024 136.623C155.722 136.16 156.661 136.351 157.146 137.035C158.653 139.164 160.378 141.25 162.336 143.271C162.919 143.872 162.932 144.831 162.346 145.43V145.43C161.761 146.029 160.799 146.041 160.215 145.44C158.103 143.268 156.242 141.016 154.617 138.713C154.134 138.028 154.326 137.086 155.024 136.623V136.623ZM151.28 92.973C152.017 93.3715 152.288 94.2903 151.928 95.0465C150.838 97.3325 149.981 99.8615 149.402 102.568C149.227 103.387 148.445 103.942 147.62 103.799V103.799C146.794 103.657 146.237 102.872 146.41 102.052C147.047 99.0285 148.01 96.1844 149.256 93.6018C149.62 92.8474 150.543 92.5745 151.28 92.973V92.973ZM147.249 115.242C148.083 115.158 148.824 115.766 148.937 116.596C149.291 119.184 149.89 121.815 150.757 124.45C151.019 125.245 150.618 126.116 149.831 126.404V126.404C149.045 126.692 148.171 126.289 147.907 125.494C146.953 122.615 146.299 119.736 145.917 116.901C145.806 116.071 146.416 115.326 147.249 115.242V115.242ZM146.676 182.33C148.043 181.572 149.379 180.812 150.683 180.05C151.406 179.628 152.337 179.863 152.765 180.583V180.583C153.194 181.303 152.958 182.235 152.235 182.657C150.904 183.435 149.541 184.211 148.146 184.983C146.96 185.64 145.735 186.312 144.476 187C143.741 187.402 142.819 187.131 142.418 186.395V186.395C142.017 185.66 142.288 184.738 143.023 184.337C144.279 183.651 145.497 182.983 146.676 182.33ZM122.441 197.553C122.017 196.831 122.258 195.901 122.982 195.48C125.479 194.027 127.928 192.638 130.311 191.308C131.042 190.9 131.966 191.164 132.372 191.897V191.897C132.779 192.629 132.515 193.552 131.783 193.96C129.418 195.281 126.991 196.657 124.519 198.096C123.795 198.517 122.865 198.276 122.441 197.553V197.553ZM103.152 209.869C102.671 209.183 102.837 208.237 103.525 207.761C105.885 206.128 108.24 204.561 110.58 203.055C111.284 202.601 112.222 202.81 112.672 203.517V203.517C113.121 204.223 112.913 205.16 112.209 205.614C109.905 207.098 107.587 208.64 105.268 210.244C104.579 210.721 103.633 210.555 103.152 209.869V209.869ZM85.1813 224C84.6249 223.373 84.681 222.414 85.3119 221.863C87.465 219.983 89.644 218.171 91.8383 216.423C92.4935 215.901 93.4473 216.017 93.9643 216.676V216.676C94.4813 217.336 94.3656 218.288 93.7105 218.81C91.5627 220.521 89.4316 222.294 87.3271 224.131C86.6961 224.682 85.7378 224.626 85.1813 224V224ZM69.2064 240.348C68.5648 239.809 68.4806 238.852 69.0258 238.216C70.8895 236.043 72.8025 233.941 74.7555 231.909C75.3359 231.305 76.2968 231.295 76.8952 231.882V231.882C77.4937 232.468 77.5032 233.428 76.9229 234.032C75.0222 236.011 73.1615 238.055 71.3496 240.167C70.8042 240.802 69.8481 240.886 69.2064 240.348V240.348ZM56.042 259.017C55.3178 258.596 55.0711 257.667 55.5006 256.948C56.9733 254.482 58.5138 252.09 60.1139 249.77C60.5894 249.08 61.5366 248.918 62.2208 249.401V249.401C62.9051 249.885 63.0673 250.831 62.5919 251.52C61.042 253.769 59.55 256.086 58.1236 258.473C57.6939 259.192 56.7663 259.438 56.042 259.017V259.017ZM46.4236 279.726C45.6345 279.444 45.222 278.576 45.5129 277.791C46.5146 275.085 47.5957 272.452 48.7492 269.888C49.0929 269.125 49.9958 268.795 50.7555 269.148V269.148C51.5152 269.501 51.8441 270.403 51.5006 271.167C50.3856 273.647 49.3401 276.194 48.3705 278.81C48.0795 279.596 47.2126 280.007 46.4236 279.726V279.726ZM40.7195 301.845C39.8931 301.708 39.3337 300.926 39.4802 300.102C39.9858 297.257 40.5733 294.478 41.2376 291.763C41.4367 290.95 42.2644 290.462 43.0758 290.67V290.67C43.8871 290.879 44.3748 291.706 44.176 292.519C43.5331 295.149 42.9638 297.842 42.473 300.6C42.3262 301.424 41.5458 301.983 40.7195 301.845V301.845Z" fill="#E83BD3" fill-opacity="0.75"/>
<path d="M420.961 66.766C420.562 66.4784 420 66.6388 419.813 67.0928L408.251 95.2883C407.971 95.9711 408.734 96.6101 409.359 96.2157L436.365 79.1686C436.819 78.882 436.839 78.2285 436.404 77.9143L420.961 66.766Z" fill="#F877E9"/>
<path d="M478.377 45.6827C478.827 45.1068 478.281 44.2911 477.575 44.4865L390.562 68.5989C389.853 68.7953 389.811 69.7822 390.5 70.0388L443.298 89.6964C443.609 89.812 443.958 89.7133 444.162 89.4527L478.377 45.6827Z" fill="#F9C8F3"/>
<path d="M471.541 48.418L407.653 75.8824L415.859 79.6577L471.541 48.418Z" fill="#EA3BD3"/>
<path d="M409.447 95.5152C409.137 96.281 407.999 96.0694 407.985 95.2434L407.653 75.8824L415.859 79.6577L409.447 95.5152Z" fill="#EA3BD3"/>
</svg>
