<svg width="29" height="26" viewBox="0 0 29 26" fill="none" xmlns="http://www.w3.org/2000/svg">
<path fill-rule="evenodd" clip-rule="evenodd" d="M26.1813 21.9951L15.1508 2.91686C14.9588 2.58472 14.4787 2.58472 14.2867 2.91686L3.25619 21.9951C3.06416 22.3272 3.3042 22.7424 3.68827 22.7424H25.7492C26.1333 22.7424 26.3733 22.3272 26.1813 21.9951ZM17.2866 1.68552C16.1453 -0.288402 13.2922 -0.288403 12.1509 1.68552L1.12042 20.7638C-0.0208444 22.7377 1.40574 25.2051 3.68827 25.2051H25.7492C28.0318 25.2051 29.4583 22.7377 28.3171 20.7638L17.2866 1.68552Z" fill="#DF6666"/>
<path d="M13.0508 19.5361C13.0508 19.0987 13.2047 18.7264 13.5124 18.419C13.8202 18.1117 14.1931 17.958 14.6311 17.958C15.0691 17.958 15.442 18.1117 15.7498 18.419C16.0575 18.7264 16.2114 19.0987 16.2114 19.5361C16.2114 19.9735 16.0575 20.3517 15.7498 20.6709C15.442 20.9901 15.0691 21.1496 14.6311 21.1496C14.1931 21.1496 13.8202 20.9901 13.5124 20.6709C13.2047 20.3517 13.0508 19.9735 13.0508 19.5361ZM16.0516 14.8728C16.0516 16.2676 15.5781 16.9651 14.6311 16.9651C13.6841 16.9651 13.2106 16.2676 13.2106 14.8728V9.53565C13.2106 8.14079 13.6841 7.44336 14.6311 7.44336C15.5781 7.44336 16.0516 8.14079 16.0516 9.53565V14.8728Z" fill="#DF6666"/>
</svg>
