<svg width="437" height="184" viewBox="0 0 437 184" fill="none" xmlns="http://www.w3.org/2000/svg">
<path fill-rule="evenodd" clip-rule="evenodd" d="M0.644679 183.129C0.0228649 182.371 0.133125 181.253 0.890987 180.631C2.9769 178.919 5.02888 177.27 7.04817 175.68C7.81847 175.074 8.93445 175.207 9.54078 175.977C10.1471 176.748 10.0142 177.864 9.24392 178.47C7.24407 180.044 5.21078 181.678 3.1428 183.375C2.38497 183.997 1.26652 183.887 0.644679 183.129ZM19.0552 168.83C18.4862 168.031 18.6721 166.923 19.4704 166.354C23.9859 163.136 28.33 160.235 32.5199 157.623C33.3519 157.105 34.4467 157.359 34.9652 158.191C35.4837 159.023 35.2296 160.118 34.3977 160.636C30.2743 163.206 25.9911 166.066 21.5309 169.245C20.7326 169.814 19.6242 169.628 19.0552 168.83ZM45.354 152.25C44.9041 151.379 45.2454 150.309 46.1164 149.859C51.0911 147.289 55.8427 145.145 60.4078 143.366C61.3212 143.01 62.3502 143.462 62.7062 144.376C63.0621 145.289 62.6101 146.318 61.6967 146.674C57.2546 148.405 52.6165 150.497 47.7457 153.013C46.8747 153.463 45.8039 153.121 45.354 152.25ZM74.0968 140.748C73.8641 139.796 74.4474 138.836 75.3997 138.603C80.8087 137.281 85.9655 136.455 90.9483 135.989C91.9244 135.897 92.7896 136.615 92.881 137.591C92.9723 138.567 92.2551 139.432 91.279 139.523C86.46 139.974 81.4747 140.773 76.2425 142.051C75.2902 142.284 74.3296 141.701 74.0968 140.748ZM104.84 137.284C104.872 136.304 105.693 135.536 106.673 135.568C111.96 135.743 117.127 136.184 122.27 136.694C123.246 136.791 123.958 137.66 123.861 138.635C123.765 139.611 122.895 140.323 121.92 140.227C116.803 139.72 111.727 139.287 106.556 139.117C105.576 139.084 104.808 138.264 104.84 137.284ZM135.777 139.844C135.862 138.867 136.722 138.144 137.699 138.229C142.696 138.664 147.782 138.985 153.067 139.029C154.047 139.037 154.835 139.838 154.827 140.819C154.819 141.799 154.018 142.587 153.037 142.579C147.628 142.534 142.443 142.205 137.391 141.766C136.415 141.681 135.692 140.82 135.777 139.844ZM166.764 140.258C166.66 139.283 167.365 138.408 168.34 138.304C173.148 137.791 178.168 136.975 183.459 135.757C184.415 135.537 185.367 136.134 185.587 137.089C185.807 138.044 185.211 138.997 184.255 139.217C178.822 140.467 173.662 141.306 168.717 141.834C167.742 141.938 166.868 141.232 166.764 140.258ZM197.094 133.766C196.775 132.839 197.267 131.829 198.194 131.509C200.543 130.698 202.946 129.808 205.407 128.831C207.887 127.846 210.2 126.763 212.367 125.592C213.23 125.127 214.307 125.448 214.772 126.311C215.238 127.173 214.916 128.25 214.054 128.716C211.763 129.953 209.324 131.095 206.717 132.13C204.207 133.127 201.753 134.036 199.351 134.865C198.424 135.184 197.414 134.692 197.094 133.766ZM224.696 119.213C224.032 118.492 224.078 117.369 224.799 116.705C228.607 113.197 231.917 109.313 234.99 105.157C235.573 104.369 236.685 104.202 237.473 104.785C238.261 105.368 238.427 106.479 237.845 107.268C234.676 111.552 231.22 115.618 227.204 119.316C226.483 119.98 225.36 119.934 224.696 119.213ZM244.222 94.6036C243.39 94.084 243.138 92.989 243.657 92.1576C244.253 91.2046 244.85 90.2435 245.452 89.2762L245.458 89.266L245.464 89.2557C247.6 85.82 249.784 82.3068 252.107 78.798C252.648 77.9806 253.749 77.7567 254.567 78.2978C255.384 78.839 255.608 79.9403 255.067 80.7577C252.775 84.2196 250.627 87.6753 248.496 91.1038L248.495 91.1046C247.886 92.0852 247.277 93.0635 246.668 94.0391C246.148 94.8704 245.053 95.1231 244.222 94.6036ZM261.766 68.4365C261.011 67.8122 260.904 66.6935 261.528 65.9376C264.798 61.9791 268.439 58.0947 272.615 54.3668C273.347 53.714 274.469 53.7777 275.122 54.5091C275.774 55.2405 275.711 56.3625 274.979 57.0153C270.954 60.6085 267.436 64.3597 264.265 68.1983C263.641 68.9542 262.522 69.0608 261.766 68.4365ZM284.84 47.1522C284.312 46.3264 284.553 45.2288 285.379 44.7005C287.568 43.3002 289.873 41.9406 292.306 40.6272C294.744 39.3113 297.154 38.1145 299.537 37.0274C300.429 36.6206 301.481 37.0138 301.888 37.9057C302.295 38.7976 301.902 39.8504 301.01 40.2573C298.7 41.3111 296.361 42.4725 293.993 43.7511C291.636 45.0232 289.407 46.3384 287.292 47.691C286.466 48.2193 285.369 47.978 284.84 47.1522ZM313.456 33.604C313.183 32.6622 313.726 31.6781 314.668 31.406C320.089 29.8399 325.35 28.788 330.451 28.1182C331.423 27.9906 332.314 28.6751 332.442 29.6471C332.569 30.6191 331.885 31.5104 330.913 31.6381C325.977 32.2861 320.892 33.3032 315.653 34.8166C314.712 35.0887 313.728 34.5458 313.456 33.604ZM344.741 28.8925C344.742 27.9122 345.538 27.1183 346.518 27.1193C352.077 27.1248 357.417 27.4559 362.531 27.8988C363.508 27.9833 364.231 28.8436 364.147 29.8203C364.062 30.7969 363.202 31.5201 362.225 31.4355C357.168 30.9977 351.937 30.6747 346.515 30.6693C345.534 30.6683 344.74 29.8728 344.741 28.8925ZM376.414 31.0618C376.507 30.0859 377.373 29.3697 378.349 29.4622C383.888 29.9872 389.082 30.3458 393.986 30.204C394.966 30.1757 395.783 30.9471 395.812 31.927C395.84 32.9069 395.069 33.7242 394.089 33.7526C388.959 33.9009 383.589 33.5247 378.014 32.9964C377.038 32.9039 376.322 32.0377 376.414 31.0618ZM407.925 29.823C407.576 28.9068 408.036 27.8815 408.953 27.5329C413.365 25.8545 417.524 23.2417 421.454 19.2772C422.144 18.581 423.268 18.5761 423.964 19.2662C424.66 19.9564 424.665 21.0802 423.975 21.7765C419.693 26.0957 415.106 28.9901 410.215 30.8509C409.299 31.1995 408.273 30.7393 407.925 29.823ZM431.177 9.29907C430.321 8.82195 430.013 7.74095 430.491 6.88459C431.428 5.20288 432.35 3.40405 433.257 1.48039C433.675 0.593749 434.725 0.195377 435.618 0.598527V0.598527C436.512 1.00168 436.911 2.0537 436.493 2.94058C435.546 4.95161 434.579 6.84 433.592 8.6124C433.115 9.46876 432.034 9.77619 431.177 9.29907Z" fill="#E83BD3" fill-opacity="0.75"/>
</svg>
