<svg width="15" height="23" viewBox="0 0 15 23" fill="none" xmlns="http://www.w3.org/2000/svg">
<path fill-rule="evenodd" clip-rule="evenodd" d="M3.97925 1.80251C4.02135 1.3072 4.35621 0.862876 4.86003 0.705668C5.64578 0.460492 6.35104 0.306444 7.10432 0.304702C7.85718 0.302961 8.57512 0.453479 9.38832 0.704548C9.89388 0.860639 10.2305 1.30581 10.2727 1.80251H12.7971C13.4931 1.80251 14.0574 2.36679 14.0574 3.06286C14.0574 3.75893 13.4931 4.32321 12.7971 4.32321H1.45388C0.757808 4.32321 0.193529 3.75893 0.193529 3.06286C0.193529 2.36679 0.757808 1.80251 1.45388 1.80251H3.97925ZM10.2762 7.58066H3.97442C3.27834 7.58066 2.71407 8.14494 2.71407 8.84101V19.2098C2.71407 19.9058 3.27834 20.4701 3.97442 20.4701H10.2762C10.9723 20.4701 11.5365 19.9058 11.5365 19.2098V8.84101C11.5365 8.14494 10.9723 7.58066 10.2762 7.58066ZM3.97442 5.05995C1.8862 5.05995 0.193359 6.75279 0.193359 8.84101V19.2098C0.193359 21.298 1.8862 22.9908 3.97442 22.9908H10.2762C12.3644 22.9908 14.0572 21.298 14.0572 19.2098V8.84101C14.0572 6.75279 12.3644 5.05995 10.2762 5.05995H3.97442Z" fill="url(#paint0_linear_2460_1875)"/>
<defs>
<linearGradient id="paint0_linear_2460_1875" x1="14.0573" y1="21.853" x2="-5.6324" y2="9.90634" gradientUnits="userSpaceOnUse">
<stop stop-color="#4653D2"/>
<stop offset="1" stop-color="#E93AD2"/>
</linearGradient>
</defs>
</svg>
