<svg width="15" height="11" viewBox="0 0 15 11" fill="none" xmlns="http://www.w3.org/2000/svg">
<path d="M2.59375 0.859375V10.8125H0.87793V0.859375H2.59375ZM7.61816 10.8125H5.49219L5.50586 9.45215H7.61816C8.2334 9.45215 8.74837 9.31771 9.16309 9.04883C9.58236 8.77995 9.89681 8.39486 10.1064 7.89355C10.3206 7.39225 10.4277 6.79525 10.4277 6.10254V5.5625C10.4277 5.02474 10.3662 4.5485 10.2432 4.13379C10.1247 3.71908 9.94694 3.37044 9.70996 3.08789C9.47754 2.80534 9.19043 2.59115 8.84863 2.44531C8.51139 2.29948 8.12174 2.22656 7.67969 2.22656H5.45117V0.859375H7.67969C8.34049 0.859375 8.94434 0.971029 9.49121 1.19434C10.0381 1.41309 10.5098 1.72982 10.9062 2.14453C11.3073 2.55924 11.6149 3.05599 11.8291 3.63477C12.0433 4.21354 12.1504 4.86068 12.1504 5.57617V6.10254C12.1504 6.81803 12.0433 7.46517 11.8291 8.04395C11.6149 8.62272 11.3073 9.11947 10.9062 9.53418C10.5052 9.94434 10.0267 10.2611 9.4707 10.4844C8.91927 10.7031 8.30176 10.8125 7.61816 10.8125ZM6.44238 0.859375V10.8125H4.72656V0.859375H6.44238ZM13.0254 9.99219C13.0254 9.73698 13.112 9.52279 13.2852 9.34961C13.4583 9.17188 13.693 9.08301 13.9893 9.08301C14.29 9.08301 14.5247 9.17188 14.6934 9.34961C14.8665 9.52279 14.9531 9.73698 14.9531 9.99219C14.9531 10.2474 14.8665 10.4616 14.6934 10.6348C14.5247 10.8079 14.29 10.8945 13.9893 10.8945C13.693 10.8945 13.4583 10.8079 13.2852 10.6348C13.112 10.4616 13.0254 10.2474 13.0254 9.99219Z" fill="#DBDBDB"/>
</svg>
