<svg width="20" height="20" viewBox="0 0 20 20" fill="none" xmlns="http://www.w3.org/2000/svg">
<circle cx="10" cy="10" r="9" stroke="#B8BAC1" stroke-width="2"/>
<path d="M10.975 7.26202V15H8.90825V7.26202H10.975ZM8.77952 5.24528C8.77952 4.94492 8.88441 4.69699 9.09419 4.50152C9.30397 4.30604 9.58526 4.20831 9.93807 4.20831C10.2861 4.20831 10.565 4.30604 10.7748 4.50152C10.9893 4.69699 11.0966 4.94492 11.0966 5.24528C11.0966 5.54565 10.9893 5.79357 10.7748 5.98904C10.565 6.18452 10.2861 6.28226 9.93807 6.28226C9.58526 6.28226 9.30397 6.18452 9.09419 5.98904C8.88441 5.79357 8.77952 5.54565 8.77952 5.24528Z" fill="#B8BAC1"/>
</svg>
