<svg width="261" height="56" viewBox="0 0 261 56" fill="none" xmlns="http://www.w3.org/2000/svg">
<path d="M83.6186 20.3261C86.8786 20.3261 89.4586 21.3961 91.3586 23.5361C93.1986 25.5961 94.1186 28.2761 94.1186 31.5761C94.1186 34.1761 93.4786 36.4661 92.1986 38.4461L93.6986 39.8261C94.3986 40.4661 94.7486 41.1661 94.7486 41.9261C94.7486 42.5061 94.5486 42.9961 94.1486 43.3961C93.7486 43.8161 93.2586 44.0261 92.6786 44.0261C92.0586 44.0261 91.3686 43.7261 90.6086 43.1261C90.5686 43.0861 90.0086 42.5561 88.9286 41.5361C87.5686 42.3561 85.7986 42.7661 83.6186 42.7661C80.3786 42.7661 77.8086 41.6961 75.9086 39.5561C74.0686 37.5161 73.1486 34.8561 73.1486 31.5761C73.1486 28.2961 74.0686 25.6261 75.9086 23.5661C77.8086 21.4061 80.3786 20.3261 83.6186 20.3261ZM85.2686 37.9061C84.3486 37.0661 83.8886 36.3261 83.8886 35.6861C83.8886 35.1261 84.0586 34.6561 84.3986 34.2761C84.7586 33.8761 85.2086 33.6761 85.7486 33.6761C86.3686 33.6761 87.1786 34.1561 88.1786 35.1161C88.6186 33.9961 88.8386 32.8361 88.8386 31.6361C88.8386 29.7761 88.4486 28.2461 87.6686 27.0461C86.7286 25.6261 85.3786 24.9161 83.6186 24.9161C81.8586 24.9161 80.5186 25.6261 79.5986 27.0461C78.8186 28.2461 78.4286 29.7761 78.4286 31.6361C78.4286 33.4561 78.8386 34.9561 79.6586 36.1361C80.5986 37.4761 81.9386 38.1461 83.6786 38.1461C84.2986 38.1461 84.8286 38.0661 85.2686 37.9061ZM96.5444 35.8661V29.4161C96.5444 27.0761 97.3544 25.9061 98.9744 25.9061C100.594 25.9061 101.404 27.0761 101.404 29.4161V34.8761C101.404 35.9561 101.544 36.7661 101.824 37.3061C102.204 38.0461 102.894 38.4161 103.894 38.4161C104.894 38.4161 105.584 38.0461 105.964 37.3061C106.244 36.7661 106.384 35.9561 106.384 34.8761V29.4161C106.384 27.0761 107.194 25.9061 108.814 25.9061C110.414 25.9061 111.214 27.0761 111.214 29.4161V35.8661C111.214 38.1861 110.574 39.9561 109.294 41.1761C108.034 42.3761 106.234 42.9761 103.894 42.9761C101.554 42.9761 99.7444 42.3761 98.4644 41.1761C97.1844 39.9561 96.5444 38.1861 96.5444 35.8661ZM119.457 39.1661C119.457 41.5261 118.657 42.7061 117.057 42.7061C115.437 42.7061 114.627 41.5261 114.627 39.1661V29.4161C114.627 27.0761 115.437 25.9061 117.057 25.9061C118.657 25.9061 119.457 27.0761 119.457 29.4161V39.1661ZM114.237 21.7961C114.237 21.0161 114.507 20.3561 115.047 19.8161C115.607 19.2761 116.277 19.0061 117.057 19.0061C117.837 19.0061 118.487 19.2761 119.007 19.8161C119.547 20.3561 119.817 21.0161 119.817 21.7961C119.817 22.5761 119.547 23.2361 119.007 23.7761C118.487 24.3161 117.837 24.5861 117.057 24.5861C116.257 24.5861 115.587 24.3261 115.047 23.8061C114.507 23.2661 114.237 22.5961 114.237 21.7961ZM122.044 34.3061C122.044 31.7661 122.804 29.6961 124.324 28.0961C125.844 26.4761 127.864 25.6661 130.384 25.6661C131.704 25.6661 132.854 25.8661 133.834 26.2661C135.154 26.8261 135.814 27.6661 135.814 28.7861C135.814 29.3661 135.624 29.8561 135.244 30.2561C134.864 30.6561 134.384 30.8561 133.804 30.8561C133.424 30.8561 132.924 30.7361 132.304 30.4961C131.704 30.2361 131.064 30.1061 130.384 30.1061C129.284 30.1061 128.434 30.5261 127.834 31.3661C127.294 32.1261 127.024 33.0761 127.024 34.2161C127.024 35.4161 127.304 36.3761 127.864 37.0961C128.504 37.8961 129.404 38.2961 130.564 38.2961C131.244 38.2961 131.874 38.1761 132.454 37.9361C133.034 37.6961 133.514 37.5761 133.894 37.5761C134.454 37.5761 134.904 37.7861 135.244 38.2061C135.604 38.6061 135.784 39.0961 135.784 39.6761C135.784 40.6561 135.104 41.4861 133.744 42.1661C132.764 42.6461 131.544 42.8861 130.084 42.8861C127.644 42.8861 125.684 42.0561 124.204 40.3961C122.764 38.7961 122.044 36.7661 122.044 34.3061ZM142.716 31.4561L146.826 27.1961C147.666 26.3161 148.496 25.8761 149.316 25.8761C149.856 25.8761 150.326 26.0561 150.726 26.4161C151.146 26.7561 151.356 27.1961 151.356 27.7361C151.356 28.5361 150.946 29.3161 150.126 30.0761L146.856 33.1061L151.386 38.4161C152.026 39.1761 152.346 39.9661 152.346 40.7861C152.346 41.3661 152.106 41.8361 151.626 42.1961C151.166 42.5361 150.646 42.7061 150.066 42.7061C149.106 42.7061 148.266 42.2261 147.546 41.2661L142.716 34.7861V39.1661C142.716 41.5261 141.906 42.7061 140.286 42.7061C138.646 42.7061 137.826 41.5261 137.826 39.1661V22.5461C137.826 20.1861 138.646 19.0061 140.286 19.0061C141.906 19.0061 142.716 20.1861 142.716 22.5461V31.4561ZM153.855 22.5461C153.855 20.1861 154.665 19.0061 156.285 19.0061C157.885 19.0061 158.685 20.1861 158.685 22.5461V39.1661C158.685 41.5261 157.885 42.7061 156.285 42.7061C154.665 42.7061 153.855 41.5261 153.855 39.1661V22.5461ZM173.182 25.9061C174.782 25.9061 175.582 26.6761 175.582 28.2161C175.582 28.7161 175.452 29.2761 175.192 29.8961L167.782 47.4461C167.222 48.7661 166.512 49.4261 165.652 49.4261C164.932 49.4261 164.352 49.2161 163.912 48.7961C163.472 48.3761 163.252 47.8061 163.252 47.0861C163.252 46.6061 163.392 46.0561 163.672 45.4361L165.652 41.0861L160.762 29.6561C160.582 29.2361 160.492 28.7861 160.492 28.3061C160.492 27.6261 160.712 27.0561 161.152 26.5961C161.612 26.1361 162.182 25.9061 162.862 25.9061C163.562 25.9061 164.112 26.1361 164.512 26.5961C164.752 26.8761 165.022 27.4261 165.322 28.2461L168.082 35.5661L171.052 27.8261C171.552 26.5461 172.262 25.9061 173.182 25.9061ZM186.596 42.7661C183.376 42.7661 180.806 41.6961 178.886 39.5561C177.066 37.4961 176.156 34.8361 176.156 31.5761C176.156 28.3761 177.096 25.7261 178.976 23.6261C180.936 21.4261 183.496 20.3261 186.656 20.3261C187.656 20.3261 188.526 20.4161 189.266 20.5961C190.206 20.8161 191.026 21.1561 191.726 21.6161C192.626 22.2361 193.076 22.9361 193.076 23.7161C193.076 24.2961 192.876 24.8061 192.476 25.2461C192.076 25.6661 191.586 25.8761 191.006 25.8761C190.506 25.8761 189.886 25.7361 189.146 25.4561C188.406 25.1561 187.586 25.0061 186.686 25.0061C184.946 25.0061 183.606 25.7161 182.666 27.1361C181.846 28.3561 181.436 29.8761 181.436 31.6961C181.436 33.5361 181.866 35.0261 182.726 36.1661C183.686 37.4461 185.056 38.0861 186.836 38.0861C187.616 38.0861 188.486 37.9061 189.446 37.5461C190.406 37.1861 191.046 37.0061 191.366 37.0061C191.926 37.0061 192.396 37.2261 192.776 37.6661C193.156 38.1061 193.346 38.6061 193.346 39.1661C193.346 39.6261 193.186 40.0761 192.866 40.5161C191.766 42.0161 189.676 42.7661 186.596 42.7661ZM199.903 27.3461C200.823 26.3861 202.203 25.9061 204.043 25.9061C207.983 25.9061 209.953 28.0061 209.953 32.2061V39.1661C209.953 41.5261 209.143 42.7061 207.523 42.7061C205.903 42.7061 205.093 41.5261 205.093 39.1661V33.6761C205.093 32.4761 204.953 31.6261 204.673 31.1261C204.293 30.4061 203.563 30.0461 202.483 30.0461C200.763 30.0461 199.903 31.2361 199.903 33.6161V39.1661C199.903 41.5261 199.093 42.7061 197.473 42.7061C195.833 42.7061 195.013 41.5261 195.013 39.1661V22.5461C195.013 20.1861 195.833 19.0061 197.473 19.0061C199.093 19.0061 199.903 20.1861 199.903 22.5461V27.3461ZM217.287 35.6561C217.387 36.5961 217.777 37.3161 218.457 37.8161C219.137 38.3161 219.967 38.5661 220.947 38.5661C221.767 38.5661 222.757 38.3061 223.917 37.7861C225.077 37.2461 225.797 36.9761 226.077 36.9761C227.357 36.9761 227.997 37.6061 227.997 38.8661C227.997 39.3461 227.817 39.8261 227.457 40.3061C226.817 41.1861 225.797 41.8561 224.397 42.3161C223.217 42.7161 221.987 42.9161 220.707 42.9161C218.307 42.9161 216.307 42.0961 214.707 40.4561C213.107 38.7961 212.307 36.7561 212.307 34.3361C212.307 31.9361 213.067 29.8861 214.587 28.1861C216.127 26.4861 218.087 25.6361 220.467 25.6361C221.647 25.6361 222.717 25.8561 223.677 26.2961C225.057 26.9361 226.187 27.8861 227.067 29.1461C227.947 30.4061 228.387 31.7761 228.387 33.2561C228.387 34.0561 228.097 34.6661 227.517 35.0861C227.017 35.4661 226.357 35.6561 225.537 35.6561H217.287ZM217.227 32.4761H223.617C223.557 31.6361 223.227 30.9461 222.627 30.4061C222.047 29.8661 221.337 29.5961 220.497 29.5961C219.637 29.5961 218.917 29.8661 218.337 30.4061C217.757 30.9261 217.387 31.6161 217.227 32.4761ZM229.71 34.3061C229.71 31.7661 230.47 29.6961 231.99 28.0961C233.51 26.4761 235.53 25.6661 238.05 25.6661C239.37 25.6661 240.52 25.8661 241.5 26.2661C242.82 26.8261 243.48 27.6661 243.48 28.7861C243.48 29.3661 243.29 29.8561 242.91 30.2561C242.53 30.6561 242.05 30.8561 241.47 30.8561C241.09 30.8561 240.59 30.7361 239.97 30.4961C239.37 30.2361 238.73 30.1061 238.05 30.1061C236.95 30.1061 236.1 30.5261 235.5 31.3661C234.96 32.1261 234.69 33.0761 234.69 34.2161C234.69 35.4161 234.97 36.3761 235.53 37.0961C236.17 37.8961 237.07 38.2961 238.23 38.2961C238.91 38.2961 239.54 38.1761 240.12 37.9361C240.7 37.6961 241.18 37.5761 241.56 37.5761C242.12 37.5761 242.57 37.7861 242.91 38.2061C243.27 38.6061 243.45 39.0961 243.45 39.6761C243.45 40.6561 242.77 41.4861 241.41 42.1661C240.43 42.6461 239.21 42.8861 237.75 42.8861C235.31 42.8861 233.35 42.0561 231.87 40.3961C230.43 38.7961 229.71 36.7661 229.71 34.3061ZM250.382 31.4561L254.492 27.1961C255.332 26.3161 256.162 25.8761 256.982 25.8761C257.522 25.8761 257.992 26.0561 258.392 26.4161C258.812 26.7561 259.022 27.1961 259.022 27.7361C259.022 28.5361 258.612 29.3161 257.792 30.0761L254.522 33.1061L259.052 38.4161C259.692 39.1761 260.012 39.9661 260.012 40.7861C260.012 41.3661 259.772 41.8361 259.292 42.1961C258.832 42.5361 258.312 42.7061 257.732 42.7061C256.772 42.7061 255.932 42.2261 255.212 41.2661L250.382 34.7861V39.1661C250.382 41.5261 249.572 42.7061 247.952 42.7061C246.312 42.7061 245.492 41.5261 245.492 39.1661V22.5461C245.492 20.1861 246.312 19.0061 247.952 19.0061C249.572 19.0061 250.382 20.1861 250.382 22.5461V31.4561Z" fill="#FAF9FA"/>
<g filter="url(#filter0_i_1790_404)">
<rect y="6.76562" width="48.6" height="48.5758" rx="9" fill="#4C4A4A"/>
</g>
<rect x="3" y="9.76562" width="42.6" height="42.5758" rx="6" stroke="#FAF9FA" stroke-width="6"/>
<mask id="path-4-outside-1_1790_404" maskUnits="userSpaceOnUse" x="5.64014" y="0.527344" width="51" height="48" fill="black">
<rect fill="white" x="5.64014" y="0.527344" width="51" height="48"/>
<path fill-rule="evenodd" clip-rule="evenodd" d="M23.0852 45.0549C23.8527 45.8757 24.9779 45.8123 25.6901 44.8648L53.4279 7.96594C54.1912 6.95055 54.1912 5.30428 53.4279 4.28889C52.6646 3.2735 51.4271 3.2735 50.6638 4.28889L24.2172 39.4701L11.9767 23.1868C11.2134 22.1715 9.9759 22.1715 9.21261 23.1868C8.44931 24.2022 8.44931 25.8485 9.21261 26.8639L22.4716 44.502C22.6535 44.744 22.8623 44.9283 23.0852 45.0549Z"/>
</mask>
<path fill-rule="evenodd" clip-rule="evenodd" d="M23.0852 45.0549C23.8527 45.8757 24.9779 45.8123 25.6901 44.8648L53.4279 7.96594C54.1912 6.95055 54.1912 5.30428 53.4279 4.28889C52.6646 3.2735 51.4271 3.2735 50.6638 4.28889L24.2172 39.4701L11.9767 23.1868C11.2134 22.1715 9.9759 22.1715 9.21261 23.1868C8.44931 24.2022 8.44931 25.8485 9.21261 26.8639L22.4716 44.502C22.6535 44.744 22.8623 44.9283 23.0852 45.0549Z" fill="#FAF9FA"/>
<path d="M25.6901 44.8648L23.6119 43.3025H23.6119L25.6901 44.8648ZM23.0852 45.0549L24.9843 43.2791L24.7138 42.9899L24.3695 42.7943L23.0852 45.0549ZM53.4279 7.96594L55.5062 9.52824L55.5062 9.52823L53.4279 7.96594ZM53.4279 4.28889L51.3497 5.85118L53.4279 4.28889ZM50.6638 4.28889L52.7421 5.85118L52.7421 5.85118L50.6638 4.28889ZM24.2172 39.4701L22.139 41.0324L24.2172 43.797L26.2955 41.0324L24.2172 39.4701ZM11.9767 23.1868L14.055 21.6246H14.055L11.9767 23.1868ZM9.21261 23.1868L7.13433 21.6246L9.21261 23.1868ZM9.21261 26.8639L11.2909 25.3016H11.2909L9.21261 26.8639ZM22.4716 44.502L20.3933 46.0643L20.3933 46.0643L22.4716 44.502ZM23.6119 43.3025C23.6412 43.2635 23.8378 43.0557 24.2321 43.0289C24.6331 43.0017 24.8974 43.1862 24.9843 43.2791L21.1861 46.8307C22.0405 47.7444 23.2511 48.3076 24.5846 48.217C25.9115 48.1268 27.0268 47.4136 27.7684 46.4271L23.6119 43.3025ZM51.3497 6.40365L23.6119 43.3025L27.7684 46.4271L55.5062 9.52824L51.3497 6.40365ZM51.3497 5.85118C51.3388 5.83674 51.3532 5.85099 51.3703 5.90714C51.3873 5.96307 51.4004 6.0395 51.4004 6.12741C51.4004 6.21533 51.3873 6.29176 51.3703 6.34769C51.3532 6.40384 51.3388 6.41809 51.3497 6.40365L55.5062 9.52823C56.2822 8.49597 56.6004 7.25603 56.6004 6.12741C56.6004 4.9988 56.2822 3.75886 55.5062 2.72659L51.3497 5.85118ZM52.7421 5.85118C52.7085 5.89584 52.4816 6.12734 52.0459 6.12734C51.6101 6.12734 51.3832 5.89584 51.3497 5.85118L55.5062 2.72659C54.7094 1.66654 53.482 0.927344 52.0459 0.927344C50.6097 0.927344 49.3824 1.66654 48.5855 2.72659L52.7421 5.85118ZM26.2955 41.0324L52.7421 5.85118L48.5855 2.72659L22.139 37.9078L26.2955 41.0324ZM9.89846 24.7491L22.139 41.0324L26.2955 37.9078L14.055 21.6246L9.89846 24.7491ZM11.2909 24.7491C11.2573 24.7938 11.0304 25.0253 10.5947 25.0253C10.1589 25.0253 9.93204 24.7938 9.89846 24.7491L14.055 21.6246C13.2581 20.5645 12.0308 19.8253 10.5947 19.8253C9.15852 19.8253 7.9312 20.5645 7.13433 21.6246L11.2909 24.7491ZM11.2909 25.3016C11.3017 25.3161 11.2874 25.3018 11.2703 25.2457C11.2532 25.1897 11.2401 25.1133 11.2401 25.0254C11.2401 24.9375 11.2532 24.861 11.2703 24.8051C11.2874 24.749 11.3017 24.7347 11.2909 24.7491L7.13433 21.6246C6.35835 22.6568 6.04014 23.8968 6.04014 25.0254C6.04014 26.154 6.35835 27.3939 7.13433 28.4262L11.2909 25.3016ZM24.5499 42.9397L11.2909 25.3016L7.13433 28.4262L20.3933 46.0643L24.5499 42.9397ZM24.3695 42.7943C24.4846 42.8596 24.5382 42.9241 24.5499 42.9397L20.3933 46.0643C20.7688 46.5638 21.24 46.9969 21.8009 47.3155L24.3695 42.7943Z" fill="#4C4A4A" mask="url(#path-4-outside-1_1790_404)"/>
<defs>
<filter id="filter0_i_1790_404" x="0" y="6.76562" width="48.6001" height="52.5762" filterUnits="userSpaceOnUse" color-interpolation-filters="sRGB">
<feFlood flood-opacity="0" result="BackgroundImageFix"/>
<feBlend mode="normal" in="SourceGraphic" in2="BackgroundImageFix" result="shape"/>
<feColorMatrix in="SourceAlpha" type="matrix" values="0 0 0 0 0 0 0 0 0 0 0 0 0 0 0 0 0 0 127 0" result="hardAlpha"/>
<feOffset dy="4"/>
<feGaussianBlur stdDeviation="8.5"/>
<feComposite in2="hardAlpha" operator="arithmetic" k2="-1" k3="1"/>
<feColorMatrix type="matrix" values="0 0 0 0 0.152941 0 0 0 0 0.152941 0 0 0 0 0.152941 0 0 0 0.65 0"/>
<feBlend mode="normal" in2="shape" result="effect1_innerShadow_1790_404"/>
</filter>
</defs>
</svg>
