<svg width="57" height="55" viewBox="0 0 57 55" fill="none" xmlns="http://www.w3.org/2000/svg">
<rect x="3" y="9.24963" width="42.6" height="42.7503" rx="6" stroke="url(#paint0_linear_1874_538)" stroke-width="6"/>
<mask id="path-2-outside-1_1874_538" maskUnits="userSpaceOnUse" x="5.63965" y="0" width="51" height="48" fill="black">
<rect fill="white" x="5.63965" width="51" height="48"/>
<path fill-rule="evenodd" clip-rule="evenodd" d="M23.0831 44.6751C23.8507 45.5006 24.9769 45.4376 25.6897 44.486L53.4275 7.45455C54.1908 6.43551 54.1908 4.78332 53.4275 3.76428C52.6642 2.74524 51.4266 2.74524 50.6633 3.76428L24.2171 39.0715L11.9763 22.7293C11.213 21.7103 9.97541 21.7103 9.21212 22.7293C8.44882 23.7484 8.44883 25.4006 9.21212 26.4196L22.4711 44.1211C22.6526 44.3633 22.8608 44.548 23.0831 44.6751Z"/>
</mask>
<path fill-rule="evenodd" clip-rule="evenodd" d="M23.0831 44.6751C23.8507 45.5006 24.9769 45.4376 25.6897 44.486L53.4275 7.45455C54.1908 6.43551 54.1908 4.78332 53.4275 3.76428C52.6642 2.74524 51.4266 2.74524 50.6633 3.76428L24.2171 39.0715L11.9763 22.7293C11.213 21.7103 9.97541 21.7103 9.21212 22.7293C8.44882 23.7484 8.44883 25.4006 9.21212 26.4196L22.4711 44.1211C22.6526 44.3633 22.8608 44.548 23.0831 44.6751Z" fill="url(#paint1_linear_1874_538)"/>
<path d="M25.6897 44.486L23.6087 42.9273H23.6087L25.6897 44.486ZM23.0831 44.6751L24.9873 42.9047L24.7174 42.6144L24.3734 42.4178L23.0831 44.6751ZM53.4275 7.45455L51.3465 5.89583L53.4275 7.45455ZM53.4275 3.76428L55.5084 2.20557V2.20557L53.4275 3.76428ZM50.6633 3.76428L48.5824 2.20557V2.20557L50.6633 3.76428ZM24.2171 39.0715L22.1361 40.6302L24.2171 43.4084L26.298 40.6302L24.2171 39.0715ZM11.9763 22.7293L14.0572 21.1706H14.0572L11.9763 22.7293ZM9.21212 22.7293L11.2931 24.2881L11.2931 24.2881L9.21212 22.7293ZM9.21212 26.4196L7.13115 27.9783H7.13115L9.21212 26.4196ZM22.4711 44.1211L24.5521 42.5624L24.5521 42.5624L22.4711 44.1211ZM23.6087 42.9273C23.6366 42.8901 23.8336 42.6797 24.2318 42.6528C24.6368 42.6255 24.902 42.8129 24.9873 42.9047L21.179 46.4454C22.0318 47.3627 23.2439 47.9314 24.5821 47.841C25.9135 47.7511 27.03 47.0335 27.7706 46.0447L23.6087 42.9273ZM51.3465 5.89583L23.6087 42.9273L27.7706 46.0447L55.5084 9.01326L51.3465 5.89583ZM51.3465 5.32299C51.3363 5.30944 51.3514 5.32511 51.369 5.38314C51.3866 5.44091 51.3999 5.51939 51.3999 5.60941C51.3999 5.69943 51.3866 5.77791 51.369 5.83569C51.3514 5.89372 51.3363 5.90938 51.3465 5.89583L55.5084 9.01326C56.2828 7.97938 56.5999 6.73836 56.5999 5.60941C56.5999 4.48046 56.2828 3.23945 55.5084 2.20557L51.3465 5.32299ZM52.7443 5.32299C52.7123 5.36566 52.4851 5.6 52.0454 5.6C51.6057 5.6 51.3785 5.36566 51.3465 5.32299L55.5084 2.20557C54.7132 1.14386 53.4855 0.4 52.0454 0.4C50.6053 0.4 49.3776 1.14386 48.5824 2.20557L52.7443 5.32299ZM26.298 40.6302L52.7443 5.32299L48.5824 2.20557L22.1361 37.5128L26.298 40.6302ZM9.89529 24.2881L22.1361 40.6302L26.298 37.5128L14.0572 21.1706L9.89529 24.2881ZM11.2931 24.2881C11.2611 24.3307 11.0339 24.5651 10.5942 24.5651C10.1545 24.5651 9.92725 24.3307 9.89529 24.2881L14.0572 21.1706C13.262 20.1089 12.0343 19.3651 10.5942 19.3651C9.15408 19.3651 7.92641 20.1089 7.13115 21.1706L11.2931 24.2881ZM11.2931 24.8609C11.3032 24.8745 11.2882 24.8588 11.2705 24.8008C11.253 24.743 11.2396 24.6645 11.2396 24.5745C11.2396 24.4845 11.253 24.406 11.2705 24.3482C11.2882 24.2902 11.3032 24.2745 11.2931 24.2881L7.13115 21.1706C6.35674 22.2045 6.03965 23.4455 6.03965 24.5745C6.03965 25.7034 6.35674 26.9444 7.13115 27.9783L11.2931 24.8609ZM24.5521 42.5624L11.2931 24.8609L7.13115 27.9783L20.3901 45.6798L24.5521 42.5624ZM24.3734 42.4178C24.4881 42.4833 24.5411 42.5477 24.5521 42.5624L20.3901 45.6798C20.7641 46.179 21.2336 46.6126 21.7929 46.9324L24.3734 42.4178Z" fill="white" mask="url(#path-2-outside-1_1874_538)"/>
<defs>
<linearGradient id="paint0_linear_1874_538" x1="57.9064" y1="64.3351" x2="-10.548" y2="-2.87416" gradientUnits="userSpaceOnUse">
<stop stop-color="#4653D2"/>
<stop offset="1" stop-color="#E93AD2"/>
</linearGradient>
<linearGradient id="paint1_linear_1874_538" x1="53.9999" y1="25.5335" x2="8.63965" y2="25.5335" gradientUnits="userSpaceOnUse">
<stop stop-color="#4653D2"/>
<stop offset="1" stop-color="#E93AD2"/>
</linearGradient>
</defs>
</svg>
