<svg width="109" height="104" viewBox="0 0 109 104" fill="none" xmlns="http://www.w3.org/2000/svg">
<rect x="6.47221" y="17.1441" width="81.2554" height="80.4312" rx="11.4444" stroke="url(#paint0_linear_1631_76)" stroke-width="11.4444"/>
<mask id="path-2-outside-1_1631_76" maskUnits="userSpaceOnUse" x="12.2305" y="0.296875" width="97" height="90" fill="black">
<rect fill="white" x="12.2305" y="0.296875" width="97" height="90"/>
<path fill-rule="evenodd" clip-rule="evenodd" d="M44.7786 83.8375C46.2426 85.3941 48.3914 85.2757 49.7511 83.482L102.658 13.692C104.114 11.7715 104.114 8.65774 102.658 6.73725C101.202 4.81675 98.8419 4.81675 97.386 6.73725L46.9426 73.2773L23.5947 42.479C22.1388 40.5585 19.7783 40.5585 18.3224 42.479C16.8665 44.3995 16.8665 47.5133 18.3224 49.4338L43.6126 82.7942C43.9584 83.2503 44.3551 83.598 44.7786 83.8375Z"/>
</mask>
<path fill-rule="evenodd" clip-rule="evenodd" d="M44.7786 83.8375C46.2426 85.3941 48.3914 85.2757 49.7511 83.482L102.658 13.692C104.114 11.7715 104.114 8.65774 102.658 6.73725C101.202 4.81675 98.8419 4.81675 97.386 6.73725L46.9426 73.2773L23.5947 42.479C22.1388 40.5585 19.7783 40.5585 18.3224 42.479C16.8665 44.3995 16.8665 47.5133 18.3224 49.4338L43.6126 82.7942C43.9584 83.2503 44.3551 83.598 44.7786 83.8375Z" fill="url(#paint1_linear_1631_76)"/>
<path d="M49.7511 83.482L53.7031 86.478L49.7511 83.482ZM44.7786 83.8375L48.3913 80.44L47.8752 79.8912L47.2194 79.5204L44.7786 83.8375ZM102.658 13.692L106.61 16.688V16.688L102.658 13.692ZM102.658 6.73725L98.7063 9.73322L102.658 6.73725ZM97.386 6.73725L101.338 9.73322V9.73322L97.386 6.73725ZM46.9426 73.2773L42.9906 76.2733L46.9426 81.4864L50.8946 76.2733L46.9426 73.2773ZM23.5947 42.479L19.6427 45.475H19.6427L23.5947 42.479ZM18.3224 42.479L14.3704 39.4831L18.3224 42.479ZM18.3224 49.4338L22.2744 46.4378H22.2744L18.3224 49.4338ZM43.6126 82.7942L39.6606 85.7902L39.6606 85.7902L43.6126 82.7942ZM45.7991 80.4861C45.8618 80.4033 46.2368 80.0169 46.9747 79.9678C47.7236 79.918 48.222 80.26 48.3913 80.44L41.166 87.2349C42.7992 88.9716 45.1039 90.0327 47.6332 89.8644C50.1514 89.6968 52.2807 88.3544 53.7031 86.478L45.7991 80.4861ZM98.7063 10.696L45.7991 80.4861L53.7031 86.478L106.61 16.688L98.7063 10.696ZM98.7063 9.73322C98.6824 9.70171 98.7066 9.72266 98.7369 9.82132C98.7672 9.91975 98.791 10.0564 98.791 10.2146C98.791 10.3729 98.7672 10.5095 98.7369 10.6079C98.7066 10.7066 98.6824 10.7275 98.7063 10.696L106.61 16.688C109.409 12.9959 109.409 7.43333 106.61 3.74127L98.7063 9.73322ZM101.338 9.73322C101.267 9.82715 100.836 10.2561 100.022 10.2561C99.2087 10.2561 98.7775 9.82715 98.7063 9.73322L106.61 3.74127C105.083 1.72684 102.744 0.337623 100.022 0.337626C97.3004 0.337629 94.9611 1.72685 93.434 3.74128L101.338 9.73322ZM50.8946 76.2733L101.338 9.73322L93.434 3.74128L42.9906 70.2813L50.8946 76.2733ZM19.6427 45.475L42.9906 76.2733L50.8946 70.2813L27.5467 39.4831L19.6427 45.475ZM22.2744 45.475C22.2032 45.5689 21.772 45.9979 20.9586 45.9979C20.1451 45.9979 19.7139 45.5689 19.6427 45.475L27.5467 39.4831C26.0196 37.4686 23.6802 36.0794 20.9586 36.0794C18.2369 36.0794 15.8975 37.4686 14.3704 39.4831L22.2744 45.475ZM22.2744 46.4378C22.2983 46.4693 22.2741 46.4483 22.2438 46.3497C22.2135 46.2513 22.1897 46.1146 22.1897 45.9564C22.1897 45.7981 22.2135 45.6615 22.2438 45.5631C22.2741 45.4644 22.2983 45.4435 22.2744 45.475L14.3704 39.4831C11.5715 43.1751 11.5715 48.7377 14.3704 52.4297L22.2744 46.4378ZM47.5646 79.7982L22.2744 46.4378L14.3704 52.4297L39.6606 85.7902L47.5646 79.7982ZM47.2194 79.5204C47.436 79.6429 47.5393 79.7648 47.5646 79.7982L39.6606 85.7902C40.3774 86.7357 41.2742 87.5531 42.3378 88.1545L47.2194 79.5204Z" fill="white" mask="url(#path-2-outside-1_1631_76)"/>
<defs>
<linearGradient id="paint0_linear_1631_76" x1="111.201" y1="120.891" x2="-17.8284" y2="-7.32357" gradientUnits="userSpaceOnUse">
<stop stop-color="#4653D2"/>
<stop offset="1" stop-color="#E93AD2"/>
</linearGradient>
<linearGradient id="paint1_linear_1631_76" x1="103.75" y1="47.7638" x2="17.2305" y2="47.7638" gradientUnits="userSpaceOnUse">
<stop stop-color="#4653D2"/>
<stop offset="1" stop-color="#E93AD2"/>
</linearGradient>
</defs>
</svg>
