<svg width="57" height="56" viewBox="0 0 57 56" fill="none" xmlns="http://www.w3.org/2000/svg">
<g filter="url(#filter0_i_1786_28)">
<rect y="6.76562" width="48.6" height="48.5758" rx="9" fill="#4C4A4A"/>
</g>
<rect x="3" y="9.76562" width="42.6" height="42.5758" rx="6" stroke="url(#paint0_linear_1786_28)" stroke-width="6"/>
<mask id="path-3-outside-1_1786_28" maskUnits="userSpaceOnUse" x="5.64014" y="0.527344" width="51" height="48" fill="black">
<rect fill="white" x="5.64014" y="0.527344" width="51" height="48"/>
<path fill-rule="evenodd" clip-rule="evenodd" d="M23.0835 45.053C23.851 45.8758 24.9774 45.813 25.6901 44.8648L53.4279 7.96594C54.1912 6.95055 54.1912 5.30428 53.4279 4.28889C52.6646 3.2735 51.4271 3.2735 50.6638 4.28889L24.2176 39.4696L11.9767 23.186C11.2134 22.1706 9.9759 22.1706 9.21261 23.186C8.44931 24.2014 8.44931 25.8476 9.21261 26.863L22.4716 44.5011C22.653 44.7424 22.8612 44.9264 23.0835 45.053Z"/>
</mask>
<path fill-rule="evenodd" clip-rule="evenodd" d="M23.0835 45.053C23.851 45.8758 24.9774 45.813 25.6901 44.8648L53.4279 7.96594C54.1912 6.95055 54.1912 5.30428 53.4279 4.28889C52.6646 3.2735 51.4271 3.2735 50.6638 4.28889L24.2176 39.4696L11.9767 23.186C11.2134 22.1706 9.9759 22.1706 9.21261 23.186C8.44931 24.2014 8.44931 25.8476 9.21261 26.863L22.4716 44.5011C22.653 44.7424 22.8612 44.9264 23.0835 45.053Z" fill="url(#paint1_linear_1786_28)"/>
<path d="M25.6901 44.8648L23.6119 43.3025H23.6119L25.6901 44.8648ZM23.0835 45.053L24.9846 43.2795L24.7145 42.9899L24.3704 42.7939L23.0835 45.053ZM53.4279 7.96594L55.5062 9.52824L55.5062 9.52823L53.4279 7.96594ZM53.4279 4.28889L51.3497 5.85118L53.4279 4.28889ZM50.6638 4.28889L52.7421 5.85118L52.7421 5.85118L50.6638 4.28889ZM24.2176 39.4696L22.1393 41.0319L24.2176 43.7966L26.2959 41.0319L24.2176 39.4696ZM11.9767 23.186L14.055 21.6237H14.055L11.9767 23.186ZM9.21261 26.863L11.2909 25.3007H11.2909L9.21261 26.863ZM22.4716 44.5011L20.3933 46.0634L20.3933 46.0634L22.4716 44.5011ZM23.6119 43.3025C23.6412 43.2635 23.8382 43.0554 24.2329 43.0289C24.6343 43.0019 24.8983 43.1869 24.9846 43.2795L21.1823 46.8266C22.0362 47.7419 23.2471 48.3069 24.5817 48.2172C25.9098 48.1279 27.0263 47.4144 27.7684 46.4271L23.6119 43.3025ZM51.3497 6.40365L23.6119 43.3025L27.7684 46.4271L55.5062 9.52824L51.3497 6.40365ZM51.3497 5.85118C51.3388 5.83674 51.3532 5.85099 51.3703 5.90714C51.3873 5.96307 51.4004 6.0395 51.4004 6.12741C51.4004 6.21533 51.3873 6.29176 51.3703 6.34769C51.3532 6.40384 51.3388 6.41809 51.3497 6.40365L55.5062 9.52823C56.2822 8.49597 56.6004 7.25603 56.6004 6.12741C56.6004 4.9988 56.2822 3.75886 55.5062 2.72659L51.3497 5.85118ZM52.7421 5.85118C52.7085 5.89584 52.4816 6.12734 52.0459 6.12734C51.6101 6.12734 51.3832 5.89584 51.3497 5.85118L55.5062 2.72659C54.7094 1.66654 53.482 0.927344 52.0459 0.927344C50.6097 0.927344 49.3824 1.66654 48.5855 2.72659L52.7421 5.85118ZM26.2959 41.0319L52.7421 5.85118L48.5855 2.72659L22.1393 37.9073L26.2959 41.0319ZM9.89846 24.7483L22.1393 41.0319L26.2959 37.9073L14.055 21.6237L9.89846 24.7483ZM11.2909 24.7483C11.2573 24.7929 11.0304 25.0244 10.5947 25.0244C10.1589 25.0244 9.93204 24.7929 9.89846 24.7483L14.055 21.6237C13.2581 20.5636 12.0308 19.8244 10.5947 19.8244C9.15852 19.8244 7.9312 20.5636 7.13433 21.6237L11.2909 24.7483ZM11.2909 25.3007C11.3017 25.3152 11.2874 25.3009 11.2703 25.2448C11.2532 25.1888 11.2401 25.1124 11.2401 25.0245C11.2401 24.9366 11.2532 24.8602 11.2703 24.8042C11.2874 24.7481 11.3017 24.7338 11.2909 24.7483L7.13433 21.6237C6.35835 22.6559 6.04014 23.8959 6.04014 25.0245C6.04014 26.1531 6.35835 27.3931 7.13433 28.4253L11.2909 25.3007ZM24.5499 42.9388L11.2909 25.3007L7.13433 28.4253L20.3933 46.0634L24.5499 42.9388ZM24.3704 42.7939C24.4848 42.8591 24.5382 42.9233 24.5499 42.9388L20.3933 46.0634C20.7678 46.5616 21.2376 46.9938 21.7965 47.3122L24.3704 42.7939Z" fill="#4C4A4A" mask="url(#path-3-outside-1_1786_28)"/>
<defs>
<filter id="filter0_i_1786_28" x="0" y="6.76562" width="48.6001" height="52.5762" filterUnits="userSpaceOnUse" color-interpolation-filters="sRGB">
<feFlood flood-opacity="0" result="BackgroundImageFix"/>
<feBlend mode="normal" in="SourceGraphic" in2="BackgroundImageFix" result="shape"/>
<feColorMatrix in="SourceAlpha" type="matrix" values="0 0 0 0 0 0 0 0 0 0 0 0 0 0 0 0 0 0 127 0" result="hardAlpha"/>
<feOffset dy="4"/>
<feGaussianBlur stdDeviation="8.5"/>
<feComposite in2="hardAlpha" operator="arithmetic" k2="-1" k3="1"/>
<feColorMatrix type="matrix" values="0 0 0 0 0.152941 0 0 0 0 0.152941 0 0 0 0 0.152941 0 0 0 0.65 0"/>
<feBlend mode="normal" in2="shape" result="effect1_innerShadow_1786_28"/>
</filter>
<linearGradient id="paint0_linear_1786_28" x1="57.9064" y1="64.6432" x2="-10.3069" y2="-2.57012" gradientUnits="userSpaceOnUse">
<stop stop-color="#4653D2"/>
<stop offset="1" stop-color="#E93AD2"/>
</linearGradient>
<linearGradient id="paint1_linear_1786_28" x1="54.0004" y1="25.9802" x2="8.64014" y2="25.9802" gradientUnits="userSpaceOnUse">
<stop stop-color="#4653D2"/>
<stop offset="1" stop-color="#E93AD2"/>
</linearGradient>
</defs>
</svg>
