<svg width="360" height="196" viewBox="0 0 360 196" fill="none" xmlns="http://www.w3.org/2000/svg">
<path fill-rule="evenodd" clip-rule="evenodd" d="M0.765625 1.07361H7.08837C4.57485 0.959089 2.43571 0.955395 0.765625 1.07361ZM35.7841 4.73492H19.3223C19.5385 5.34781 20.0845 5.81896 20.7732 5.90651C24.9553 6.43822 29.5734 7.12632 34.5184 7.9739C35.4846 8.13951 36.402 7.49053 36.5676 6.52438C36.6912 5.80336 36.3611 5.10946 35.7841 4.73492ZM359.95 4.7348C357.784 5.12866 355.59 5.54763 353.369 5.99112C352.454 6.17384 351.563 5.61769 351.314 4.7348H359.95ZM351.311 4.72222V3.77786C351.239 4.03702 351.225 4.31648 351.281 4.5982C351.29 4.6402 351.299 4.68155 351.311 4.72222ZM340.528 6.93546C340.751 7.88996 340.159 8.84466 339.204 9.06786C334.612 10.1417 329.935 11.3063 325.188 12.5569C324.24 12.8067 323.269 12.2407 323.019 11.2929C322.77 10.345 323.336 9.37408 324.284 9.12433C329.061 7.86565 333.77 6.693 338.396 5.61134C339.35 5.38814 340.305 5.98097 340.528 6.93546ZM46.7795 8.46419C46.9788 7.50444 47.9185 6.88805 48.8783 7.08744C53.3053 8.00716 57.8828 9.03326 62.5528 10.1673C63.5054 10.3986 64.09 11.3583 63.8587 12.3109C63.6274 13.2634 62.6677 13.8481 61.7151 13.6168C57.0847 12.4924 52.5458 11.4749 48.1562 10.563C47.1965 10.3636 46.5801 9.42394 46.7795 8.46419ZM312.465 14.2177C312.738 15.1591 312.197 16.1438 311.255 16.4171C306.681 17.745 302.059 19.1447 297.403 20.6122C296.469 20.9069 295.472 20.388 295.177 19.4531C294.882 18.5182 295.401 17.5214 296.336 17.2267C301.017 15.7512 305.665 14.3436 310.266 13.008C311.207 12.7347 312.192 13.2764 312.465 14.2177ZM73.9316 14.9393C74.1958 13.9953 75.1751 13.4442 76.1191 13.7083C80.5787 14.956 85.0716 16.2987 89.5514 17.7376C90.4847 18.0374 90.9982 19.0369 90.6985 19.9702C90.3987 20.9035 89.3991 21.4171 88.4658 21.1173C84.0317 19.693 79.5819 18.3632 75.1627 17.1268C74.2187 16.8627 73.6675 15.8833 73.9316 14.9393ZM284.752 22.8643C285.067 23.7926 284.569 24.8003 283.641 25.1151C279.101 26.6544 274.541 28.253 269.975 29.9073C269.053 30.2412 268.035 29.7647 267.702 28.8431C267.368 27.9214 267.844 26.9036 268.766 26.5698C273.355 24.9072 277.938 23.3005 282.501 21.7532C283.43 21.4385 284.437 21.9359 284.752 22.8643ZM100.533 23.3591C100.873 22.4398 101.894 21.9704 102.813 22.3107C107.236 23.9479 111.601 25.684 115.861 27.5205C116.761 27.9086 117.176 28.9529 116.788 29.8531C116.399 30.7532 115.355 31.1683 114.455 30.7801C110.258 28.9706 105.951 27.2574 101.581 25.6397C100.662 25.2994 100.192 24.2784 100.533 23.3591ZM257.428 32.6834C257.781 33.598 257.325 34.6253 256.411 34.9778C251.917 36.7098 247.428 38.4922 242.955 40.3214C242.048 40.6924 241.011 40.2577 240.64 39.3504C240.269 38.4431 240.704 37.4068 241.611 37.0358C246.107 35.1974 250.618 33.4062 255.134 31.6656C256.049 31.313 257.076 31.7687 257.428 32.6834ZM126.212 34.2705C126.659 33.398 127.728 33.053 128.601 33.4998C132.887 35.695 137 38.0098 140.879 40.4466C141.709 40.968 141.959 42.0636 141.437 42.8937C140.916 43.7237 139.82 43.9738 138.99 43.4524C135.21 41.0776 131.189 38.8135 126.983 36.6593C126.11 36.2125 125.765 35.143 126.212 34.2705ZM230.537 43.6042C230.927 44.5036 230.514 45.5487 229.614 45.9384C225.176 47.862 220.765 49.829 216.393 51.8361C215.502 52.2451 214.448 51.8545 214.039 50.9637C213.63 50.0728 214.021 49.0191 214.912 48.6101C219.307 46.5922 223.741 44.6148 228.203 42.6814C229.102 42.2916 230.147 42.7047 230.537 43.6042ZM149.913 48.9108C150.533 48.151 151.651 48.0371 152.41 48.6564C156.247 51.7839 159.695 55.0872 162.653 58.5714C163.288 59.3187 163.196 60.4387 162.449 61.0731C161.702 61.7076 160.582 61.6161 159.947 60.8688C157.152 57.576 153.866 54.4222 150.168 51.408C149.408 50.7886 149.294 49.6706 149.913 48.9108ZM204.123 55.6514C204.552 56.5327 204.186 57.595 203.305 58.0241C198.935 60.1517 194.618 62.3173 190.367 64.5171C189.496 64.9676 188.425 64.627 187.975 63.7564C187.524 62.8858 187.865 61.8149 188.736 61.3644C193.013 59.1509 197.356 56.9724 201.751 54.8326C202.632 54.4034 203.694 54.77 204.123 55.6514ZM178.301 68.9236C178.774 69.7819 178.463 70.8615 177.604 71.3351C175.715 72.3776 173.843 73.4264 171.988 74.4813C172.33 75.4838 172.632 76.498 172.893 77.524C173.525 80.0081 174.06 82.4736 174.504 84.9184C174.679 85.8829 174.038 86.8065 173.074 86.9815C172.109 87.1564 171.186 86.5163 171.011 85.5518C170.582 83.1884 170.064 80.8034 169.453 78.3989C169.272 77.689 169.07 76.9841 168.846 76.2841C167.571 77.0215 166.306 77.7617 165.05 78.5046C164.207 79.0036 163.118 78.7242 162.619 77.8805C162.12 77.0368 162.399 75.9483 163.243 75.4493C164.679 74.6002 166.126 73.7548 167.584 72.9132C167.473 72.6527 167.358 72.393 167.24 72.1339C166.835 71.2414 167.23 70.1893 168.122 69.784C169.015 69.3786 170.067 69.7736 170.472 70.6661C170.544 70.8236 170.614 70.9814 170.684 71.1395C172.405 70.1633 174.14 69.1924 175.889 68.2272C176.748 67.7536 177.827 68.0654 178.301 68.9236ZM153.292 83.6077C153.82 84.4338 153.578 85.5312 152.751 86.0588C148.61 88.7038 144.597 91.376 140.73 94.0704C139.925 94.6308 138.819 94.4331 138.259 93.6288C137.698 92.8245 137.896 91.7183 138.7 91.1579C142.609 88.4345 146.662 85.7359 150.841 83.067C151.667 82.5395 152.764 82.7815 153.292 83.6077ZM174.287 98.2379C175.267 98.2048 176.088 98.9722 176.121 99.9519C176.295 105.119 176.071 110.162 175.497 115.058C175.383 116.032 174.502 116.729 173.528 116.615C172.555 116.501 171.858 115.619 171.972 114.645C172.525 109.923 172.741 105.058 172.573 100.072C172.54 99.0919 173.308 98.2709 174.287 98.2379ZM129.389 100.12C129.988 100.896 129.844 102.011 129.068 102.61C125.154 105.631 121.439 108.672 117.947 111.725C117.209 112.37 116.088 112.295 115.443 111.557C114.798 110.819 114.873 109.698 115.611 109.053C119.162 105.948 122.933 102.861 126.899 99.7998C127.675 99.2009 128.79 99.3445 129.389 100.12ZM107.453 119.091C108.156 119.775 108.171 120.898 107.487 121.601C104.003 125.181 100.857 128.763 98.0829 132.336C97.4817 133.11 96.3667 133.25 95.5925 132.649C94.8183 132.048 94.678 130.933 95.2793 130.159C98.145 126.468 101.379 122.787 104.943 119.125C105.627 118.423 106.751 118.407 107.453 119.091ZM171.37 127.716C172.316 127.975 172.872 128.951 172.614 129.896C171.256 134.86 169.548 139.621 167.552 144.152C167.157 145.049 166.11 145.456 165.212 145.061C164.315 144.666 163.908 143.618 164.303 142.721C166.231 138.346 167.88 133.749 169.19 128.96C169.448 128.014 170.425 127.458 171.37 127.716ZM89.5227 141.812C90.3855 142.277 90.7078 143.354 90.2425 144.216C87.8701 148.616 86.1366 152.966 85.0914 157.247C84.8589 158.2 83.8985 158.783 82.9462 158.551C81.994 158.318 81.4105 157.358 81.6429 156.406C82.7709 151.786 84.6261 147.153 87.118 142.532C87.5833 141.669 88.6599 141.346 89.5227 141.812ZM159.906 155.065C160.737 155.586 160.988 156.681 160.467 157.511C157.721 161.889 154.712 165.961 151.524 169.69C150.887 170.436 149.767 170.523 149.022 169.886C148.277 169.249 148.189 168.129 148.826 167.384C151.902 163.785 154.807 159.854 157.46 155.625C157.981 154.795 159.076 154.544 159.906 155.065ZM82.2084 169.448C83.1812 169.327 84.0679 170.017 84.1889 170.99C84.4702 173.251 84.9758 175.495 85.7175 177.72C86.5253 180.143 87.5459 182.227 88.7383 183.998C89.2858 184.812 89.0704 185.914 88.2573 186.462C87.4441 187.009 86.3412 186.794 85.7937 185.981C84.404 183.917 83.2484 181.538 82.3499 178.843C81.5342 176.396 80.9766 173.922 80.6663 171.428C80.5452 170.455 81.2357 169.569 82.2084 169.448ZM141.016 177.905C141.651 178.652 141.56 179.772 140.813 180.407C136.766 183.849 132.585 186.782 128.396 189.145C127.542 189.627 126.46 189.325 125.978 188.472C125.497 187.618 125.798 186.535 126.652 186.054C130.628 183.81 134.625 181.01 138.514 177.703C139.26 177.068 140.381 177.158 141.016 177.905ZM115.509 192.774C115.74 193.727 115.155 194.686 114.202 194.916C108.704 196.248 103.39 196.407 98.6266 195.151C97.6788 194.901 97.113 193.93 97.363 192.982C97.613 192.034 98.584 191.468 99.5318 191.718C103.597 192.79 108.296 192.694 113.367 191.466C114.319 191.236 115.279 191.821 115.509 192.774Z" fill="#E83BD3" fill-opacity="0.75"/>
</svg>
