<svg width="657" height="357" viewBox="0 0 657 357" fill="none" xmlns="http://www.w3.org/2000/svg">
<path fill-rule="evenodd" clip-rule="evenodd" d="M0 0.15971H11.5607C6.96434 -0.0498411 3.05298 -0.0566055 0 0.15971ZM63.9831 6.84898H33.9069C34.3019 7.96861 35.2994 8.82929 36.5575 8.98923C44.1983 9.96068 52.6357 11.2178 61.6702 12.7664C63.4354 13.0689 65.1116 11.8833 65.4142 10.1181C65.64 8.80093 65.0371 7.53331 63.9831 6.84898ZM656.232 6.84949C652.277 7.56876 648.27 8.33388 644.215 9.14374C642.543 9.4775 640.916 8.46192 640.46 6.84949H656.232ZM640.453 6.82505V5.10046C640.322 5.57384 640.297 6.08428 640.4 6.59887C640.415 6.67546 640.433 6.75088 640.453 6.82505ZM620.754 10.8691C621.162 12.6129 620.078 14.3572 618.335 14.765C609.945 16.7268 601.399 18.8546 592.727 21.1396C590.995 21.5959 589.221 20.5619 588.765 18.8301C588.309 17.0982 589.343 15.3244 591.075 14.8681C599.802 12.5685 608.407 10.4261 616.858 8.44986C618.602 8.04207 620.346 9.12518 620.754 10.8691ZM84.0713 13.6621C84.4356 11.9087 86.1524 10.7825 87.9058 11.1468C95.9941 12.8271 104.357 14.7018 112.889 16.7737C114.63 17.1963 115.698 18.9497 115.275 20.6901C114.853 22.4304 113.099 23.4986 111.359 23.076C102.899 21.0217 94.6064 19.1628 86.5866 17.4967C84.8332 17.1324 83.707 15.4156 84.0713 13.6621ZM569.482 24.1739C569.982 25.8938 568.992 27.6928 567.272 28.192C558.914 30.6181 550.47 33.1755 541.964 35.8567C540.256 36.3951 538.435 35.4469 537.897 33.7389C537.358 32.0308 538.306 30.2097 540.014 29.6712C548.566 26.9755 557.058 24.4038 565.464 21.9637C567.184 21.4644 568.983 22.4539 569.482 24.1739ZM133.679 25.4923C134.161 23.7676 135.951 22.7607 137.675 23.2432C145.823 25.5228 154.032 27.9758 162.216 30.6047C163.921 31.1524 164.86 32.9787 164.312 34.6838C163.764 36.3889 161.938 37.3272 160.233 36.7795C152.131 34.1773 144.002 31.7478 135.928 29.4888C134.203 29.0063 133.196 27.217 133.679 25.4923ZM518.85 39.9711C519.425 41.6672 518.516 43.5083 516.82 44.0834C508.525 46.8957 500.195 49.8164 491.852 52.8388C490.168 53.4488 488.309 52.5783 487.699 50.8945C487.089 49.2106 487.959 47.3511 489.643 46.7411C498.028 43.7036 506.4 40.7681 514.738 37.9413C516.434 37.3663 518.275 38.2751 518.85 39.9711ZM182.279 40.8753C182.901 39.1957 184.766 38.3381 186.446 38.9598C194.527 41.951 202.502 45.1229 210.283 48.4782C211.928 49.1873 212.686 51.0953 211.977 52.7398C211.268 54.3844 209.36 55.1427 207.715 54.4336C200.048 51.1275 192.179 47.9975 184.194 45.042C182.515 44.4203 181.657 42.5548 182.279 40.8753ZM468.93 57.9108C469.574 59.5819 468.741 61.4587 467.07 62.1028C458.86 65.2672 450.658 68.5235 442.487 71.8655C440.829 72.5434 438.936 71.7492 438.258 70.0915C437.58 68.4339 438.374 66.5406 440.032 65.8626C448.244 62.5039 456.487 59.2313 464.738 56.0512C466.409 55.4072 468.285 56.2397 468.93 57.9108ZM229.195 60.8106C230.012 59.2166 231.966 58.5861 233.56 59.4024C241.392 63.4131 248.905 67.6424 255.992 72.0943C257.508 73.047 257.965 75.0487 257.012 76.5652C256.06 78.0816 254.058 78.5386 252.542 77.5859C245.636 73.2472 238.289 69.1106 230.604 65.175C229.01 64.3586 228.379 62.4046 229.195 60.8106ZM419.799 77.8632C420.511 79.5064 419.756 81.4158 418.113 82.1279C410.003 85.6422 401.944 89.2361 393.957 92.9031C392.33 93.6503 390.405 92.9367 389.657 91.3091C388.91 89.6815 389.624 87.7564 391.251 87.0091C399.281 83.3223 407.383 79.7096 415.534 76.1772C417.177 75.4651 419.087 76.2199 419.799 77.8632ZM272.498 87.5586C273.629 86.1704 275.672 85.9623 277.06 87.0938C284.07 92.8078 290.37 98.8428 295.774 105.209C296.933 106.574 296.766 108.62 295.401 109.779C294.036 110.938 291.989 110.771 290.83 109.406C285.723 103.39 279.719 97.6279 272.963 92.1209C271.574 90.9894 271.366 88.9468 272.498 87.5586ZM371.541 99.8736C372.325 101.484 371.655 103.425 370.045 104.209C362.061 108.096 354.174 112.052 346.407 116.071C344.817 116.894 342.86 116.272 342.037 114.682C341.214 113.091 341.836 111.134 343.427 110.311C351.242 106.267 359.176 102.287 367.205 98.3776C368.816 97.5936 370.757 98.2634 371.541 99.8736ZM324.362 124.122C325.228 125.69 324.658 127.663 323.09 128.528C319.639 130.433 316.217 132.349 312.829 134.276C313.454 136.108 314.006 137.961 314.483 139.835C315.637 144.374 316.615 148.878 317.425 153.345C317.744 155.107 316.575 156.795 314.813 157.114C313.051 157.434 311.363 156.264 311.043 154.502C310.26 150.184 309.314 145.827 308.197 141.434C307.867 140.137 307.497 138.849 307.087 137.57C304.76 138.917 302.448 140.269 300.154 141.627C298.612 142.538 296.623 142.028 295.712 140.487C294.8 138.945 295.31 136.956 296.852 136.045C299.474 134.493 302.118 132.949 304.783 131.411C304.579 130.935 304.369 130.461 304.155 129.987C303.414 128.357 304.135 126.435 305.766 125.694C307.397 124.953 309.319 125.675 310.06 127.306L310.112 127.422C310.225 127.671 310.336 127.921 310.446 128.171C313.59 126.387 316.761 124.613 319.957 122.85C321.525 121.984 323.497 122.554 324.362 124.122ZM278.671 150.95C279.635 152.459 279.193 154.464 277.683 155.428C270.116 160.261 262.785 165.143 255.719 170.066C254.25 171.09 252.229 170.728 251.205 169.259C250.181 167.789 250.542 165.768 252.012 164.744C259.153 159.769 266.557 154.838 274.193 149.962C275.702 148.998 277.707 149.441 278.671 150.95ZM317.029 177.68C318.819 177.619 320.319 179.021 320.38 180.811C320.698 190.251 320.288 199.465 319.24 208.411C319.032 210.19 317.421 211.463 315.643 211.254C313.864 211.046 312.591 209.435 312.799 207.656C313.81 199.028 314.205 190.14 313.898 181.03C313.837 179.24 315.24 177.74 317.029 177.68ZM235 181.119C236.094 182.537 235.832 184.573 234.414 185.667C227.262 191.188 220.476 196.743 214.096 202.321C212.748 203.5 210.699 203.362 209.52 202.014C208.342 200.666 208.479 198.617 209.827 197.438C216.315 191.766 223.204 186.127 230.451 180.533C231.869 179.439 233.906 179.701 235 181.119ZM194.923 215.779C196.206 217.028 196.234 219.081 194.985 220.364C188.619 226.905 182.872 233.45 177.803 239.977C176.705 241.392 174.668 241.648 173.253 240.549C171.839 239.451 171.583 237.414 172.681 235.999C177.917 229.257 183.826 222.531 190.337 215.841C191.586 214.558 193.639 214.53 194.923 215.779ZM311.7 231.537C313.427 232.009 314.445 233.793 313.972 235.52C311.492 244.589 308.37 253.287 304.724 261.566C304.003 263.205 302.089 263.948 300.45 263.226C298.811 262.504 298.067 260.591 298.789 258.952C302.31 250.957 305.323 242.56 307.716 233.809C308.189 232.082 309.972 231.064 311.7 231.537ZM162.164 257.29C163.74 258.139 164.329 260.106 163.479 261.683C159.144 269.721 155.977 277.669 154.068 285.491C153.643 287.231 151.888 288.297 150.148 287.872C148.409 287.447 147.342 285.693 147.767 283.953C149.828 275.512 153.217 267.048 157.77 258.605C158.62 257.028 160.587 256.44 162.164 257.29ZM290.756 281.503C292.273 282.454 292.731 284.456 291.779 285.973C286.762 293.971 281.266 301.41 275.441 308.224C274.277 309.586 272.23 309.746 270.869 308.582C269.508 307.418 269.347 305.372 270.511 304.01C276.131 297.436 281.438 290.253 286.285 282.526C287.237 281.009 289.238 280.551 290.756 281.503ZM148.8 307.781C150.578 307.559 152.198 308.821 152.419 310.598C152.933 314.729 153.856 318.829 155.212 322.895C156.687 327.322 158.552 331.129 160.731 334.365C161.731 335.851 161.337 337.866 159.852 338.866C158.366 339.866 156.351 339.473 155.351 337.987C152.812 334.216 150.701 329.87 149.059 324.946C147.569 320.475 146.55 315.956 145.983 311.399C145.762 309.622 147.023 308.002 148.8 307.781ZM256.242 323.233C257.402 324.597 257.236 326.643 255.872 327.804C248.477 334.092 240.838 339.452 233.186 343.769C231.626 344.649 229.648 344.098 228.768 342.538C227.888 340.978 228.439 339 229.999 338.12C237.264 334.022 244.566 328.905 251.671 322.863C253.035 321.703 255.081 321.868 256.242 323.233ZM209.641 350.398C210.063 352.139 208.993 353.891 207.253 354.313C197.208 356.744 187.499 357.035 178.797 354.74C177.065 354.284 176.031 352.509 176.488 350.778C176.945 349.046 178.719 348.012 180.45 348.469C187.877 350.428 196.463 350.252 205.727 348.009C207.467 347.588 209.22 348.657 209.641 350.398Z" fill="#E83BD3" fill-opacity="0.75"/>
</svg>
