<svg width="29" height="29" viewBox="0 0 29 29" fill="none" xmlns="http://www.w3.org/2000/svg">
<path d="M3.41252 22.6148L2.51133 21.7136L2.29859 21.9264L2.20345 22.2118L3.41252 22.6148ZM6.82539 26.0277L7.22842 27.2368L7.51384 27.1416L7.72658 26.9289L6.82539 26.0277ZM1.70609 27.7341L0.497018 27.3311C0.344362 27.7891 0.463555 28.294 0.804901 28.6353C1.14625 28.9767 1.65115 29.0958 2.10912 28.9432L1.70609 27.7341ZM4.31371 23.516L24.2221 3.60762L22.4197 1.80524L2.51133 21.7136L4.31371 23.516ZM25.8326 5.21811L5.9242 25.1265L7.72658 26.9289L27.635 7.02049L25.8326 5.21811ZM6.42237 24.8186L1.30307 26.525L2.10912 28.9432L7.22842 27.2368L6.42237 24.8186ZM2.91517 28.1371L4.6216 23.0178L2.20345 22.2118L0.497018 27.3311L2.91517 28.1371ZM2.51133 23.516L5.9242 26.9289L7.72658 25.1265L4.31372 21.7136L2.51133 23.516ZM25.8326 3.60762C26.2773 4.05235 26.2773 4.77339 25.8326 5.21811L27.635 7.02049C29.0751 5.58034 29.0751 3.24539 27.635 1.80524L25.8326 3.60762ZM24.2221 3.60762C24.6668 3.1629 25.3879 3.1629 25.8326 3.60762L27.635 1.80524C26.1948 0.365092 23.8599 0.365088 22.4197 1.80524L24.2221 3.60762Z" fill="#B8BAC1"/>
</svg>
