<svg width="763" height="729" viewBox="0 0 700 500" fill="none" xmlns="http://www.w3.org/2000/svg">
<path d="M494.058 375.101C495.873 371.253 500.811 370.119 504.123 372.789L658.631 497.372C663.61 501.386 660.499 509.425 654.115 509.043L446.714 496.612C442.074 496.334 439.183 491.457 441.165 487.253L494.058 375.101Z" fill="#F877E9"/>
<path d="M92.8493 437.228C87.0279 434.737 87.7542 426.262 93.9147 424.798L675.157 286.64C681.35 285.168 685.807 292.482 681.659 297.311L438.652 580.218C436.784 582.393 433.721 583.105 431.085 581.977L92.8493 437.228Z" fill="#F9C8F3"/>
<path d="M137.854 429.395L602.726 383.95L566.731 432.823L137.854 429.395Z" fill="#EA3BD3"/>
<path d="M650.456 507.07C655.87 511.872 663.934 505.67 660.683 499.204L602.726 383.95L566.731 432.823L650.456 507.07Z" fill="#EA3BD3"/>
</svg>
