<svg width="656" height="578" viewBox="0 0 656 578" fill="none" xmlns="http://www.w3.org/2000/svg">
<g clip-path="url(#clip0_1748_65)">
<path d="M632.228 239.183H11.1008C4.97862 239.183 0.015625 244.135 0.015625 250.243V275.64C0.015625 281.749 4.97862 286.7 11.1008 286.7H632.228C638.35 286.7 643.313 281.749 643.313 275.64V250.243C643.313 244.135 638.35 239.183 632.228 239.183Z" fill="#D583AF"/>
<path d="M133.721 289.667C134.14 287.424 132.657 285.266 130.408 284.848C128.16 284.43 125.997 285.909 125.578 288.153L77.5095 545.409C77.0904 547.652 78.5734 549.81 80.8219 550.228C83.0705 550.646 85.2331 549.167 85.6522 546.923L133.721 289.667Z" fill="#D583AF"/>
<path d="M182.382 547.609C182.802 549.853 184.964 551.332 187.213 550.914C189.461 550.496 190.944 548.338 190.525 546.095L142.457 288.839C142.038 286.595 139.875 285.116 137.626 285.534C135.378 285.952 133.895 288.11 134.314 290.353L182.382 547.609Z" fill="#D583AF"/>
<path d="M505.854 290.009C506.274 287.766 504.791 285.608 502.542 285.19C500.294 284.772 498.131 286.252 497.712 288.495L449.643 545.751C449.224 547.994 450.707 550.152 452.956 550.57C455.204 550.988 457.367 549.509 457.786 547.266L505.854 290.009Z" fill="#D583AF"/>
<path d="M554.528 547.95C554.947 550.193 557.11 551.672 559.358 551.254C561.607 550.836 563.09 548.678 562.671 546.435L514.602 289.179C514.183 286.936 512.021 285.456 509.772 285.874C507.523 286.292 506.04 288.45 506.46 290.693L554.528 547.95Z" fill="#D583AF"/>
<path d="M224.714 551.019C229.187 551.845 231.824 548.498 232.707 543.76L269 377.189C269.883 372.451 263.519 368.044 259.047 367.217C254.574 366.391 247.796 368.319 246.912 373.057L218.903 540.992C218.019 545.73 220.228 550.179 224.714 551.005V551.019Z" fill="#D583AF"/>
<path d="M371.665 528.334C367.385 529.009 365.011 526.007 364.335 521.806L335.869 373.718C335.193 369.503 341.391 365.688 345.671 365.013C349.95 364.339 356.3 366.143 356.977 370.357L377.532 519.547C378.208 523.762 375.944 527.673 371.665 528.348V528.334Z" fill="#D583AF"/>
<path d="M398.97 354.188H242.978C237.259 354.188 232.624 358.813 232.624 364.518V367.272C232.624 372.977 237.259 377.602 242.978 377.602H398.97C404.688 377.602 409.324 372.977 409.324 367.272V364.518C409.324 358.813 404.688 354.188 398.97 354.188Z" fill="#D583AF"/>
<path d="M446.597 22.2574H198.112C188.964 22.2574 181.547 29.6571 181.547 38.7851V183.402C181.547 192.53 188.964 199.93 198.112 199.93H446.597C455.746 199.93 463.162 192.53 463.162 183.402V38.7851C463.162 29.6571 455.746 22.2574 446.597 22.2574Z" fill="#DDB0C8"/>
<path d="M202.488 31.8988H440.84C445.533 31.8988 449.357 35.7001 449.357 40.3968V165.497H193.971V40.383C193.971 35.7001 197.781 31.885 202.488 31.885V31.8988Z" fill="#ECCCD9"/>
<path d="M425.199 56.6899H212.607C209.939 56.6899 207.775 58.8482 207.775 61.5105C207.775 64.1728 209.939 66.3311 212.607 66.3311H425.199C427.867 66.3311 430.031 64.1728 430.031 61.5105C430.031 58.8482 427.867 56.6899 425.199 56.6899Z" fill="white"/>
<path d="M425.199 71.6198H212.607C209.939 71.6198 207.775 73.778 207.775 76.4403V150.815C207.775 153.477 209.939 155.635 212.607 155.635H425.199C427.867 155.635 430.031 153.477 430.031 150.815V76.4403C430.031 73.778 427.867 71.6198 425.199 71.6198Z" fill="white"/>
<path d="M418.284 77.3495H398.985C395.546 77.3495 392.759 80.1305 392.759 83.5611V111.08C392.759 114.51 395.546 117.291 398.985 117.291H418.284C421.723 117.291 424.51 114.51 424.51 111.08V83.5611C424.51 80.1305 421.723 77.3495 418.284 77.3495Z" fill="#FCEBEC"/>
<path d="M378.596 77.3495H359.296C355.858 77.3495 353.07 80.1305 353.07 83.5611V111.08C353.07 114.51 355.858 117.291 359.296 117.291H378.596C382.034 117.291 384.822 114.51 384.822 111.08V83.5611C384.822 80.1305 382.034 77.3495 378.596 77.3495Z" fill="#FCEBEC"/>
<path d="M339.597 77.3495H320.297C316.859 77.3495 314.071 80.1305 314.071 83.5611V111.08C314.071 114.51 316.859 117.291 320.297 117.291H339.597C343.035 117.291 345.823 114.51 345.823 111.08V83.5611C345.823 80.1305 343.035 77.3495 339.597 77.3495Z" fill="#FCEBEC"/>
<path d="M320.297 77.3495H339.597C343.034 77.3495 345.823 80.1316 345.823 83.5611H314.071C314.071 80.1316 316.86 77.3495 320.297 77.3495Z" fill="#E93AD2"/>
<path d="M359.296 77.3495H378.596C382.033 77.3495 384.822 80.1316 384.822 83.5611H353.07C353.07 80.1316 355.859 77.3495 359.296 77.3495Z" fill="#26C2D8"/>
<path d="M398.985 77.3495H418.284C421.722 77.3495 424.51 80.1316 424.51 83.5611H392.759C392.759 80.1316 395.547 77.3495 398.985 77.3495Z" fill="#4653D2"/>
<path d="M423.129 128.31H318.213C317.451 128.31 316.833 128.926 316.833 129.687C316.833 130.448 317.451 131.064 318.213 131.064H423.129C423.891 131.064 424.509 130.448 424.509 129.687C424.509 128.926 423.891 128.31 423.129 128.31Z" fill="#26C2D8"/>
<path d="M423.129 139.328H318.213C317.451 139.328 316.833 139.945 316.833 140.706C316.833 141.466 317.451 142.083 318.213 142.083H423.129C423.891 142.083 424.509 141.466 424.509 140.706C424.509 139.945 423.891 139.328 423.129 139.328Z" fill="#26C2D8"/>
<path d="M210.536 48.4261C212.061 48.4261 213.297 47.1928 213.297 45.6715C213.297 44.1502 212.061 42.9169 210.536 42.9169C209.012 42.9169 207.775 44.1502 207.775 45.6715C207.775 47.1928 209.012 48.4261 210.536 48.4261Z" fill="#E93AD2"/>
<path d="M219.51 48.4261C221.035 48.4261 222.271 47.1928 222.271 45.6715C222.271 44.1502 221.035 42.9169 219.51 42.9169C217.985 42.9169 216.749 44.1502 216.749 45.6715C216.749 47.1928 217.985 48.4261 219.51 48.4261Z" fill="#F9C818"/>
<path d="M228.483 48.4261C230.008 48.4261 231.244 47.1928 231.244 45.6715C231.244 44.1502 230.008 42.9169 228.483 42.9169C226.958 42.9169 225.722 44.1502 225.722 45.6715C225.722 47.1928 226.958 48.4261 228.483 48.4261Z" fill="#26C2D8"/>
<path d="M245.049 133.819C256.486 133.819 265.757 124.569 265.757 113.159C265.757 101.749 256.486 92.4999 245.049 92.4999C233.613 92.4999 224.342 101.749 224.342 113.159C224.342 124.569 233.613 133.819 245.049 133.819Z" fill="white"/>
<path d="M272.658 104.896C272.658 83.6026 286.394 71.8405 301.648 71.8405C316.902 71.8405 327.877 83.6026 327.877 104.896C327.877 126.189 315.522 143.46 300.268 143.46C285.013 143.46 272.658 126.189 272.658 104.896Z" fill="#9B5120"/>
<path d="M282.322 110.405C282.322 110.405 280.941 106.273 279.561 106.81C278.18 107.347 276.8 111.782 278.18 117.291C279.243 121.52 282.322 118.669 282.322 118.669" fill="#ECAFA3"/>
<path d="M289.224 136.574C289.224 136.574 289.638 155.057 285.289 170.607C280.941 186.157 302.794 206.004 302.794 206.004L312.692 173.761C311.312 159.988 307.598 152.84 311.312 137.951" fill="#ECAFA3"/>
<path d="M323.735 121.395C320.988 136.546 308.577 147.468 300.322 147.523C289.251 147.605 280.954 128.392 280.94 114.55C280.927 96.6452 290.604 83.2991 304.353 84.2907C322.327 85.5854 326.869 104.179 323.749 121.395H323.735Z" fill="#ECAFA3"/>
<path d="M279.56 162.743C276.799 163.39 258.853 161.971 243.668 171.007C228.483 180.042 199.466 219.474 191.21 236.525C182.955 253.576 182.928 268.795 188.45 275.682C192.011 280.117 203.635 274.993 210.537 264.319C217.439 253.645 229.864 217.835 249.19 204.062C268.517 190.289 253.332 312.869 253.332 312.869C253.332 312.869 363.935 317.001 345.823 307.36C325.116 296.341 322.355 281.191 322.355 281.191L359.628 198.553C359.628 198.553 356.287 161.903 311.311 164.12C298.086 164.767 290.604 163.39 279.56 162.743Z" fill="#ECAFA3"/>
<path d="M292.108 112.608C292.108 112.608 297.202 116.079 300.322 113.724" stroke="black" stroke-width="1.57411" stroke-linecap="round" stroke-linejoin="round"/>
<path d="M308.674 113.985C308.674 113.985 313.768 117.456 316.888 115.101" stroke="black" stroke-width="1.57411" stroke-linecap="round" stroke-linejoin="round"/>
<path d="M297.63 133.268C297.63 133.268 302.724 136.739 305.844 134.383" stroke="#CE0036" stroke-width="1.57411" stroke-linecap="round" stroke-linejoin="round"/>
<path d="M593.961 66.331C593.961 64.4293 592.416 62.8877 590.51 62.8877C588.604 62.8877 587.059 64.4293 587.059 66.331V237.117C587.059 239.018 588.604 240.56 590.51 240.56C592.416 240.56 593.961 239.018 593.961 237.117V66.331Z" fill="#EECCDC"/>
<path d="M523.902 2.6257L522.537 4.12319C521.993 4.71955 522.036 5.64291 522.634 6.18556L652.183 123.796C652.781 124.339 653.706 124.295 654.25 123.699L655.616 122.201C656.16 121.605 656.116 120.682 655.519 120.139L525.969 2.52844C525.372 1.98579 524.446 2.02933 523.902 2.6257Z" fill="#EECCDC"/>
<path d="M620.191 234.362H560.83C557.781 234.362 555.309 236.829 555.309 239.872C555.309 242.914 557.781 245.381 560.83 245.381H620.191C623.24 245.381 625.712 242.914 625.712 239.872C625.712 236.829 623.24 234.362 620.191 234.362Z" fill="#EECCDC"/>
<path d="M516.053 18.5409L519.19 10.2269C520.411 6.99153 524.039 5.35197 527.281 6.57002C530.524 7.78807 532.168 11.4076 530.947 14.6429L527.81 22.9569L516.053 18.5409Z" fill="#EECCDC"/>
<path d="M525.587 1.96319L522.396 10.419C521.8 11.9994 522.601 13.7628 524.185 14.3578C525.769 14.9528 527.536 14.154 528.133 12.5736L531.323 4.11783C531.92 2.53743 531.119 0.773934 529.535 0.178947C527.951 -0.416039 526.183 0.382793 525.587 1.96319Z" fill="#EECCDC"/>
<path d="M485.539 28.1382C488.507 23.1936 508.745 10.55 522.674 16.2383C537.196 22.1607 545.341 46.6078 543.063 51.1943C538.618 60.1881 481.329 35.7822 485.525 28.1519L485.539 28.1382Z" fill="#EECCDC"/>
<path d="M485.264 29.0468C491.31 18.9511 547.247 43.1091 542.801 52.0891C538.356 61.0691 481.067 36.6771 485.264 29.0468Z" fill="#DDB0C8"/>
<path d="M510.83 35.0796C510.278 38.0684 512.279 40.947 515.275 41.4841C518.271 42.0213 521.156 40.0379 521.694 37.0492C521.819 36.3881 521.791 35.727 521.694 35.0934C518.837 33.8401 515.91 32.6694 512.997 31.6501C511.907 32.449 511.106 33.6472 510.844 35.0796H510.83Z" fill="#F5E0EA"/>
<path d="M87.5511 168.252H27.059C25.4656 168.252 24.1738 169.541 24.1738 171.131V175.015C24.1738 176.604 25.4656 177.893 27.059 177.893H87.5511C89.1445 177.893 90.4363 176.604 90.4363 175.015V171.131C90.4363 169.541 89.1445 168.252 87.5511 168.252Z" fill="#ECAFA3"/>
<path d="M82.0296 204.062H21.5375C19.9441 204.062 18.6523 205.351 18.6523 206.941V210.825C18.6523 212.414 19.9441 213.703 21.5375 213.703H82.0296C83.623 213.703 84.9148 212.414 84.9148 210.825V206.941C84.9148 205.351 83.623 204.062 82.0296 204.062Z" fill="#EECCDC"/>
<path d="M88.9319 213.703H28.4399C26.8464 213.703 25.5547 214.992 25.5547 216.582V219.088C25.5547 220.678 26.8464 221.967 28.4399 221.967H88.9319C90.5254 221.967 91.8171 220.678 91.8171 219.088V216.582C91.8171 214.992 90.5254 213.703 88.9319 213.703Z" fill="#ECAFA3"/>
<path d="M83.4099 177.893H17.3959C15.8025 177.893 14.5107 179.182 14.5107 180.772V187.41C14.5107 189 15.8025 190.289 17.3959 190.289H83.4099C85.0033 190.289 86.295 189 86.295 187.41V180.772C86.295 179.182 85.0033 177.893 83.4099 177.893Z" fill="#EECCDC"/>
<path d="M87.5515 221.967H21.5375C19.9441 221.967 18.6523 223.256 18.6523 224.845V236.993C18.6523 238.583 19.9441 239.872 21.5375 239.872H87.5515C89.1449 239.872 90.4366 238.583 90.4366 236.993V224.845C90.4366 223.256 89.1449 221.967 87.5515 221.967Z" fill="#EECCDC"/>
<path d="M90.3122 190.289H24.2983C22.7048 190.289 21.4131 191.578 21.4131 193.168V201.183C21.4131 202.773 22.7048 204.062 24.2983 204.062H90.3122C91.9057 204.062 93.1974 202.773 93.1974 201.183V193.168C93.1974 191.578 91.9057 190.289 90.3122 190.289Z" fill="#ECAFA3"/>
<path d="M385.925 354.987C385.925 354.987 376.648 317.621 367.909 312.869C352.724 304.605 335.468 276.398 340.3 272.927C336.711 264.87 341.239 244.114 348.583 224.721L335.814 216.031L258.908 228.137C258.908 228.137 246.953 290.928 249.521 312.001C253.317 343.17 271.263 352.811 283.687 354.188C296.111 355.565 295.808 354.188 308.536 354.188C322.34 354.188 385.911 354.987 385.911 354.987H385.925Z" fill="#884ACE"/>
<path d="M286.974 163.293C286.974 163.293 291.75 189.242 300.35 189.077C309.931 188.898 311.311 164.106 311.311 164.106C311.311 164.106 328.443 164.313 335.759 167.646C343.076 170.979 353.264 177.19 357.143 189.242C361.008 201.293 359.559 209.116 359.559 209.116L334.793 249.499L289.721 238.481L258.274 231.208C258.274 231.208 258.867 219.198 257.487 212.312C256.534 207.588 254.726 204.048 250.585 204.048C247.824 204.048 240.921 210.934 238.547 214.447C235.344 219.157 226.385 233.192 226.385 233.192L201.191 219.722C201.191 219.722 219.897 194.131 229.035 183.939C238.174 173.747 245.753 170.263 253.691 166.503C261.628 162.743 287.001 163.293 287.001 163.293H286.974Z" fill="#884ACE"/>
<path d="M301.482 279.869L338.23 279.814C340.053 279.745 341.53 279.249 341.502 278.712L336.463 267.432C336.436 266.894 334.931 266.523 333.109 266.591L275.723 268.836C273.901 268.905 273.804 269.346 273.832 269.883L295.367 279.139C297.727 280.199 299.646 279.938 301.469 279.869H301.482Z" fill="#4653D2"/>
<path d="M424.026 279.813H312.236C308.688 279.813 305.789 277.128 305.789 273.85L314.721 203.152C314.721 199.874 317.62 197.189 321.167 197.189H432.958C436.505 197.189 439.404 199.874 439.404 203.152L430.473 273.85C430.473 277.128 427.574 279.813 424.026 279.813Z" fill="#3267C8"/>
<path d="M209.267 250.559C209.267 250.559 213.808 236.084 222.961 241.235C232.114 246.386 235.317 253.011 239.527 263.272C243.738 273.533 244.373 284.882 234.971 267.473C231.203 260.49 237.36 279.262 236.904 283.367C236.449 287.471 236.145 290.212 233.563 288.545C230.982 286.879 226.481 268.216 226.481 268.216C226.481 268.216 231.299 287.375 228.939 288.408C225.791 289.785 218.902 270.324 218.902 270.324C218.902 270.324 223.375 287.168 220.09 288.325C216.804 289.482 212.966 273.822 212.966 273.822L209.17 256.385L209.28 250.559H209.267Z" fill="#ECAFA3"/>
<path d="M302.338 78.727C308.818 78.727 314.072 72.8689 314.072 65.6426C314.072 58.4163 308.818 52.5582 302.338 52.5582C295.857 52.5582 290.604 58.4163 290.604 65.6426C290.604 72.8689 295.857 78.727 302.338 78.727Z" fill="#9B5120"/>
<path d="M278.87 120.735C280.395 120.735 281.631 119.502 281.631 117.98C281.631 116.459 280.395 115.226 278.87 115.226C277.346 115.226 276.109 116.459 276.109 117.98C276.109 119.502 277.346 120.735 278.87 120.735Z" fill="black"/>
<path d="M307.86 144.838C305.955 146.738 299.259 146.738 297.188 145.623" stroke="#CE7442" stroke-width="1.57411" stroke-linecap="round" stroke-linejoin="round"/>
<path d="M304.961 120.032C304.961 120.032 305.679 124.067 306.48 124.853C307.28 125.638 306.107 127.18 303.719 126.395" stroke="black" stroke-width="1.57411" stroke-linecap="round" stroke-linejoin="round"/>
<path d="M312.692 85.6135C312.692 85.6135 312.568 96.3565 298.887 93.8773C283.701 91.1227 280.94 107.65 280.94 107.65L283.701 89.7454L296.126 81.4816L312.692 85.6135Z" fill="#9B5120"/>
<path d="M311.311 86.9905C311.393 91.6183 314.016 95.8604 319.594 98.009C323.873 99.6617 324.481 107.65 324.481 107.65L326.496 100.764L317.481 83.561L311.311 86.9905Z" fill="#9B5120"/>
<path d="M267.136 333.528C267.136 333.528 311.311 376.225 356.866 398.262C345.822 428.562 341.681 485.032 327.876 498.805C312.595 514.052 334.779 562.161 355.486 551.143C355.486 537.37 351.344 527.728 352.725 504.314C354.312 477.429 367.91 471.259 376.193 440.394C385.331 406.319 387.623 389.599 379.147 364.311C370.671 339.024 359.627 328.474 345.822 324.108C332.018 319.742 268.861 321.628 268.861 321.628L267.136 333.515V333.528Z" fill="#ECAFA3"/>
<path d="M341.681 387.243C387.236 406.526 377.573 446.467 403.802 494.673C416.64 518.266 394.249 520.801 406.563 531.86C420.367 544.256 425.972 567.946 440.992 571.127C453.002 573.675 444.967 557.588 441.268 551.046C440.053 548.898 436.188 538.361 435.553 535.979C429.63 514.038 417.786 435.725 414.846 412.021C410.511 377.01 410.953 377.712 395.519 359.683C378.167 339.41 350.005 333.611 336.159 329.383C267.205 308.296 315.452 334.892 276.799 334.892C276.799 334.892 292.743 366.515 341.681 387.23V387.243Z" fill="#ECAFA3"/>
<path d="M256.093 318.378C256.093 318.378 253.332 348.679 290.605 362.452C309.641 369.49 320.975 374.848 329.258 385.866C337.54 396.885 337.54 457.486 337.54 457.486C337.54 457.486 378.195 432.281 389.998 450.599C399.924 465.998 430.239 445.999 430.032 443.713C428.983 432.171 416.448 398.482 410.705 367.961C406.564 345.924 384.476 318.378 348.584 299.096L256.093 318.378Z" fill="#884ACE"/>
<path d="M369.691 285.501C369.691 285.501 365.95 265.351 369.691 262.941C373.432 260.531 375.296 277.32 375.296 277.32C375.296 277.32 371.582 255.035 375.296 255.71C379.009 256.385 380.97 276.232 380.97 276.232C380.97 276.232 377.353 254.14 380.97 253.892C384.587 253.644 387.596 276.232 387.596 276.232C387.596 276.232 386.188 261.908 390.15 261.908C394.112 261.908 395.506 279.813 395.506 279.813C402.409 277.059 399.814 282.609 399.648 283.945C397.467 301.244 371.762 299.894 369.677 285.501H369.691Z" fill="#ECAFA3"/>
<path d="M398.322 275.186C395.616 275.682 395.671 279.8 395.671 279.8C397.065 281.301 399.661 283.932 400.13 279.759C400.13 279.759 401.027 274.69 398.322 275.186Z" fill="#ECAFA3"/>
<path d="M406.659 515.085C406.659 515.085 398.28 519.464 399.66 529.106C401.041 538.747 405.182 547.011 403.802 567.67H406.659C406.659 567.67 405.376 542.851 406.659 539.422C407.943 535.992 417.607 553.897 418.987 559.406C419.663 562.078 423.128 577.311 431.411 577.311C439.694 577.311 452.118 580.066 453.499 574.557C454.879 569.047 449.357 563.538 445.216 559.406C443.835 563.538 434.172 563.538 431.411 562.161C428.65 560.784 408.123 531.364 406.659 515.085Z" fill="#D583AF"/>
<path d="M328.539 497.992C326.496 500.182 320.974 511.104 320.974 522.219C320.974 533.334 319.594 545.633 319.594 545.633H322.838C322.838 545.633 323.017 525.538 324.067 521.819C325.116 518.101 323.735 548.388 329.257 553.897C334.779 559.406 345.823 566.293 352.726 563.538C359.628 560.783 356.867 551.142 355.349 544.628C354.258 546.749 351.304 547.451 348.198 547.534C341.765 547.713 335.897 543.677 333.744 537.631C331.287 530.744 328.857 518.734 328.539 498.006V497.992Z" fill="#D583AF"/>
<rect x="222.772" y="96.8512" width="36.323" height="36.2556" rx="4.29613" stroke="url(#paint0_linear_1748_65)" stroke-width="4.29613"/>
<mask id="path-66-outside-1_1748_65" maskUnits="userSpaceOnUse" x="225.846" y="89.9996" width="42" height="40" fill="black">
<rect fill="white" x="225.846" y="89.9996" width="42" height="40"/>
<path fill-rule="evenodd" clip-rule="evenodd" d="M239.916 126.666C240.558 127.353 241.499 127.301 242.095 126.509L265.278 95.7051C265.916 94.8574 265.916 93.4831 265.278 92.6354C264.64 91.7877 263.606 91.7877 262.968 92.6354L240.865 122.005L230.634 108.411C229.996 107.564 228.962 107.564 228.324 108.411C227.686 109.259 227.686 110.633 228.324 111.481L239.406 126.205C239.557 126.407 239.731 126.56 239.916 126.666Z"/>
</mask>
<path fill-rule="evenodd" clip-rule="evenodd" d="M239.916 126.666C240.558 127.353 241.499 127.301 242.095 126.509L265.278 95.7051C265.916 94.8574 265.916 93.4831 265.278 92.6354C264.64 91.7877 263.606 91.7877 262.968 92.6354L240.865 122.005L230.634 108.411C229.996 107.564 228.962 107.564 228.324 108.411C227.686 109.259 227.686 110.633 228.324 111.481L239.406 126.205C239.557 126.407 239.731 126.56 239.916 126.666Z" fill="url(#paint1_linear_1748_65)"/>
<path d="M242.095 126.509L243.583 127.628L243.583 127.628L242.095 126.509ZM239.916 126.666L241.277 125.395L241.084 125.188L240.838 125.048L239.916 126.666ZM265.278 95.7051L266.765 96.8245L266.765 96.8245L265.278 95.7051ZM265.278 92.6354L263.79 93.7548L263.79 93.7548L265.278 92.6354ZM262.968 92.6354L261.48 91.5159V91.5159L262.968 92.6354ZM240.865 122.005L239.377 123.124L240.865 125.101L242.352 123.124L240.865 122.005ZM230.634 108.411L229.147 109.531L229.147 109.531L230.634 108.411ZM228.324 108.411L229.812 109.531H229.812L228.324 108.411ZM228.324 111.481L226.837 112.6L226.837 112.6L228.324 111.481ZM239.406 126.205L237.918 127.325L237.918 127.325L239.406 126.205ZM240.608 125.39C240.587 125.418 240.672 125.3 240.899 125.284C241.129 125.269 241.261 125.378 241.277 125.395L238.555 127.936C239.213 128.64 240.136 129.067 241.147 128.999C242.154 128.932 243.008 128.392 243.583 127.628L240.608 125.39ZM263.79 94.5856L240.608 125.39L243.583 127.628L266.765 96.8245L263.79 94.5856ZM263.79 93.7548C263.827 93.803 263.895 93.9469 263.895 94.1702C263.895 94.3936 263.827 94.5374 263.79 94.5856L266.765 96.8245C267.367 96.025 267.618 95.0579 267.618 94.1702C267.618 93.2826 267.367 92.3154 266.765 91.5159L263.79 93.7548ZM264.455 93.7548C264.469 93.7364 264.453 93.7639 264.391 93.7975C264.327 93.832 264.234 93.8613 264.123 93.8613C264.012 93.8613 263.918 93.832 263.854 93.7975C263.792 93.7639 263.776 93.7364 263.79 93.7548L266.765 91.5159C266.149 90.6966 265.21 90.138 264.123 90.138C263.035 90.138 262.097 90.6966 261.48 91.5159L264.455 93.7548ZM242.352 123.124L264.455 93.7548L261.48 91.5159L239.377 120.885L242.352 123.124ZM229.147 109.531L239.377 123.124L242.352 120.885L232.122 107.292L229.147 109.531ZM229.812 109.531C229.825 109.512 229.81 109.54 229.748 109.573C229.684 109.608 229.59 109.637 229.479 109.637C229.368 109.637 229.275 109.608 229.211 109.573C229.149 109.54 229.133 109.512 229.147 109.531L232.122 107.292C231.505 106.472 230.567 105.914 229.479 105.914C228.392 105.914 227.453 106.472 226.837 107.292L229.812 109.531ZM229.812 110.361C229.775 110.313 229.707 110.169 229.707 109.946C229.707 109.723 229.775 109.579 229.812 109.531L226.837 107.292C226.235 108.091 225.984 109.058 225.984 109.946C225.984 110.834 226.235 111.801 226.837 112.6L229.812 110.361ZM240.893 125.086L229.812 110.361L226.837 112.6L237.918 127.325L240.893 125.086ZM240.838 125.048C240.893 125.08 240.906 125.103 240.893 125.086L237.918 127.325C238.208 127.71 238.569 128.04 238.995 128.283L240.838 125.048Z" fill="white" mask="url(#path-66-outside-1_1748_65)"/>
</g>
<defs>
<linearGradient id="paint0_linear_1748_65" x1="269.021" y1="143.02" x2="212.075" y2="86.8433" gradientUnits="userSpaceOnUse">
<stop stop-color="#4653D2"/>
<stop offset="1" stop-color="#E93AD2"/>
</linearGradient>
<linearGradient id="paint1_linear_1748_65" x1="265.756" y1="110.744" x2="227.846" y2="110.744" gradientUnits="userSpaceOnUse">
<stop stop-color="#4653D2"/>
<stop offset="1" stop-color="#E93AD2"/>
</linearGradient>
<clipPath id="clip0_1748_65">
<rect width="655.984" height="578" fill="white" transform="translate(0.015625)"/>
</clipPath>
</defs>
</svg>
