<svg width="1001" height="1000" viewBox="0 0 1001 1000" fill="none" xmlns="http://www.w3.org/2000/svg">
<rect width="1000" height="1000" transform="translate(0.5)" fill="#F2ECF6"/>
<rect x="231.677" y="251.788" width="536.666" height="536.666" rx="87.2083" stroke="url(#paint0_linear_1769_4672)" stroke-width="67.0833"/>
<mask id="path-2-outside-1_1769_4672" maskUnits="userSpaceOnUse" x="265.363" y="137" width="645" height="605" fill="black">
<rect fill="white" x="265.363" y="137" width="645" height="605"/>
<path fill-rule="evenodd" clip-rule="evenodd" d="M485.784 694.121C495.319 704.349 509.313 703.57 518.169 691.784L862.751 233.167C872.233 220.547 872.233 200.086 862.751 187.465C853.268 174.845 837.895 174.845 828.412 187.465L499.877 624.725L347.813 422.338C338.331 409.718 322.957 409.718 313.475 422.338C303.993 434.959 303.993 455.42 313.475 468.04L478.189 687.265C480.441 690.262 483.026 692.547 485.784 694.121Z"/>
</mask>
<path fill-rule="evenodd" clip-rule="evenodd" d="M485.784 694.121C495.319 704.349 509.313 703.57 518.169 691.784L862.751 233.167C872.233 220.547 872.233 200.086 862.751 187.465C853.268 174.845 837.895 174.845 828.412 187.465L499.877 624.725L347.813 422.338C338.331 409.718 322.957 409.718 313.475 422.338C303.993 434.959 303.993 455.42 313.475 468.04L478.189 687.265C480.441 690.262 483.026 692.547 485.784 694.121Z" fill="url(#paint1_linear_1769_4672)"/>
<path d="M518.169 691.784L550.348 715.962H550.348L518.169 691.784ZM485.784 694.121L515.226 666.676L511.048 662.194L505.726 659.159L485.784 694.121ZM862.751 233.167L830.572 208.99L830.572 208.99L862.751 233.167ZM862.751 187.465L830.572 211.643L830.572 211.643L862.751 187.465ZM828.412 187.465L796.233 163.287L796.233 163.287L828.412 187.465ZM499.877 624.725L467.698 648.903L499.877 691.732L532.056 648.903L499.877 624.725ZM347.813 422.338L315.634 446.516H315.634L347.813 422.338ZM313.475 468.04L281.296 492.218L281.296 492.218L313.475 468.04ZM478.189 687.265L510.368 663.087L510.368 663.087L478.189 687.265ZM485.99 667.606C487.531 665.555 491.987 661.556 499.533 661.049C507.183 660.535 512.719 663.986 515.226 666.676L456.343 721.566C468.384 734.484 485.686 742.66 504.929 741.368C524.071 740.082 539.951 729.8 550.348 715.962L485.99 667.606ZM830.572 208.99L485.99 667.606L550.348 715.962L894.93 257.345L830.572 208.99ZM830.572 211.643C829.822 210.645 829.608 209.971 829.582 209.887C829.555 209.799 829.612 209.969 829.612 210.316C829.612 210.664 829.555 210.834 829.582 210.746C829.608 210.661 829.822 209.988 830.572 208.99L894.93 257.345C905.772 242.915 910.112 225.753 910.112 210.316C910.112 194.88 905.772 177.718 894.93 163.287L830.572 211.643ZM860.591 211.643C858.908 213.883 853.865 218.25 845.582 218.25C837.298 218.25 832.255 213.883 830.572 211.643L894.93 163.287C883.764 148.427 866.293 137.75 845.581 137.75C824.87 137.75 807.399 148.427 796.233 163.287L860.591 211.643ZM532.056 648.903L860.591 211.643L796.233 163.287L467.698 600.548L532.056 648.903ZM315.634 446.516L467.698 648.903L532.056 600.548L379.992 398.161L315.634 446.516ZM345.654 446.516C343.971 448.757 338.928 453.123 330.644 453.123C322.361 453.123 317.318 448.757 315.634 446.516L379.992 398.161C368.827 383.3 351.356 372.623 330.644 372.623C309.933 372.623 292.462 383.3 281.296 398.161L345.654 446.516ZM345.654 443.863C346.404 444.861 346.618 445.535 346.644 445.619C346.67 445.707 346.613 445.537 346.613 445.189C346.613 444.842 346.67 444.672 346.644 444.76C346.618 444.844 346.404 445.518 345.654 446.516L281.296 398.161C270.454 412.591 266.113 429.753 266.113 445.189C266.113 460.626 270.454 477.788 281.296 492.218L345.654 443.863ZM510.368 663.087L345.654 443.863L281.296 492.218L446.01 711.442L510.368 663.087ZM505.726 659.159C508.174 660.555 509.634 662.11 510.368 663.087L446.01 711.442C451.248 718.414 457.877 724.54 465.842 729.084L505.726 659.159Z" fill="#F2ECF6" mask="url(#path-2-outside-1_1769_4672)"/>
<defs>
<linearGradient id="paint0_linear_1769_4672" x1="917.497" y1="937.607" x2="69.6784" y2="102.635" gradientUnits="userSpaceOnUse">
<stop stop-color="#4653D2"/>
<stop offset="1" stop-color="#E93AD2"/>
</linearGradient>
<linearGradient id="paint1_linear_1769_4672" x1="869.863" y1="457.066" x2="306.363" y2="457.066" gradientUnits="userSpaceOnUse">
<stop stop-color="#4653D2"/>
<stop offset="1" stop-color="#E93AD2"/>
</linearGradient>
</defs>
</svg>
